<?xml version="1.0" encoding="UTF-8" standalone="no"?>
<svg
   version="1.1"
   id="Layer_1"
   x="0px"
   y="0px"
   viewBox="175.0064 174.9657 1569.9935 1570.0858"
   enable-background="new 175.0064 174.9657 1569.9935 1570.0858"
   xml:space="preserve"
   sodipodi:docname="mandala.svg"
   inkscape:version="1.1.1 (3bf5ae0d25, 2021-09-20)"
   xmlns:inkscape="http://www.inkscape.org/namespaces/inkscape"
   xmlns:sodipodi="http://sodipodi.sourceforge.net/DTD/sodipodi-0.dtd"
   xmlns="http://www.w3.org/2000/svg"
   xmlns:svg="http://www.w3.org/2000/svg"><defs
   id="defs16">
	
	
	
	
	
</defs><sodipodi:namedview
   id="namedview14"
   pagecolor="#ffffff"
   bordercolor="#666666"
   borderopacity="1.0"
   inkscape:pageshadow="2"
   inkscape:pageopacity="0.0"
   inkscape:pagecheckerboard="0"
   showgrid="false"
   inkscape:zoom="0.55474675"
   inkscape:cx="770.62191"
   inkscape:cy="746.28648"
   inkscape:window-width="1920"
   inkscape:window-height="1043"
   inkscape:window-x="0"
   inkscape:window-y="37"
   inkscape:window-maximized="1"
   inkscape:current-layer="Layer_1" />
<path
   fill="#010101"
   stroke="#010101"
   stroke-width="0.0938"
   d="m 959.325,185.76 c 0.29,-0.3 0.87,-0.91 1.16,-1.21 0.37,4.14 0.52,8.3 1.08,12.42 -0.47,1.77 -2.77,1.79 -3.24,0.04 0.55,-3.73 0.59,-7.52 1,-11.25 z"
   id="path2"
   style="fill:#b2b2b2;fill-opacity:1;stroke:#b2b2b2;stroke-opacity:1" /><path
   fill="#010101"
   stroke="#010101"
   stroke-width="0.0938"
   d="m 958.105,199.34 c 0.41,0.04 1.23,0.14 1.64,0.19 -3.02,17.95 -12.65,34.15 -25.3,47 -22.47,22.99 -50.98,38.73 -74.7,60.28 -14.18,12.62 -26.68,27.69 -33.92,45.4 -3.59,8.49 -5.72,17.51 -7.04,26.62 -0.41,-0.05 -1.23,-0.16 -1.64,-0.21 2.2,-17.12 8.53,-33.67 18.55,-47.75 3.34,-4.95 7.36,-9.37 11.18,-13.95 0,-0.34 0,-1.03 -0.01,-1.38 -17.54,-6.6 -35.83,-12.31 -51.22,-23.36 -9.17,-6.5 -16.66,-15.31 -21.43,-25.5 1.19,13.98 -2.54,28.04 -9.54,40.11 -8.1,14.41 -19.25,26.73 -29.74,39.4 16.06,4.8 31.47,12.45 43.99,23.73 8.65,7.65 15.83,16.85 21.72,26.75 5.19,-1.48 10.41,-2.84 15.63,-4.2 0.15,-4.55 0.43,-9.09 0.72,-13.63 2.64,3.92 0.69,8.83 1,13.21 8.56,-2.1 17.15,-4.07 25.79,-5.81 1.35,-16.71 7.87,-32.9 18.54,-45.83 12.75,-15.72 29.75,-27.06 46.17,-38.55 12.64,-8.85 25.43,-17.9 35.43,-29.8 6.75,-7.99 11.73,-17.53 13.85,-27.8 0.04,-1.1 1.19,-0.9 1.96,-0.92 -2.75,14.62 -11.14,27.56 -21.84,37.67 -11.08,10.6 -23.99,18.96 -36.4,27.87 13.85,8.58 26.47,19.52 35.54,33.16 6.8,9.97 11.61,21.2 14.87,32.8 5.36,-0.11 10.72,-0.11 16.08,0 3.3,-11.81 8.25,-23.22 15.23,-33.33 8.57,-12.66 20.17,-23.06 33.03,-31.22 0.73,-0.47 2.79,-1.66 0.9,-2.36 -13.94,-9.86 -28.48,-19.29 -40.05,-32 -8.15,-8.86 -14.2401,-19.71 -16.72,-31.54 0.5,-0.69 1,-1.37 1.52,-2.04 2.15,15.11 11.35,28.24 22.34,38.41 19.05,17.71 42.6201,29.66 61.7001,47.35 9.3,8.55 17.5,18.54 22.8,30.08 4.1499,8.8 6.47,18.37 7.37,28.04 8.64,1.75 17.22,3.74 25.7899,5.8 0.3101,-4.37 -1.6499,-9.29 1.01,-13.2 0.27,4.54 0.5601,9.09 0.7101,13.64 5.22,1.36 10.4399,2.72 15.63,4.21 8.23,-13.98 19.2999,-26.4 32.86,-35.4 10.0499,-6.76 21.2899,-11.57 32.85,-15.11 -11.84,-14.29 -24.61,-28.23 -32.71,-45.12 -5.15,-10.63 -7.53,-22.56 -6.5601,-34.35 -4.9299,10.48 -12.72,19.47 -22.22,26.04 -15.59,10.87 -33.9,16.62 -51.55,23.15 16.5,17.09 28.14,39.18 30.8301,62.94 -0.6901,-0.1 -1.89,0.24 -1.8601,-0.82 -2.59,-22.27 -13.45,-42.95 -28.59,-59.26 -20.01,-21.73 -45.45,-37.21 -68.35,-55.56 -13.27,-10.72 -26.03,-22.69 -34.49,-37.69 -4.63,-8.02 -7.57,-16.9 -9.32,-25.97 0.41,-0.05 1.23,-0.15 1.65,-0.2 2.84,16.37 11.18,31.36 22.45,43.42 18.53,20.07 42.0901,34.36 63.3201,51.27 19.39,-8.21 39.4,-14.97 58.39,-24.12 13.54,-6.62 26.64,-14.81 36.67,-26.23 8.21,-9.13 13.84,-20.37 17.0599,-32.18 l 1.55,0.43 c -3.77,13.58 -3.9301,28.17 -0.1,41.75 4.6799,17.12 14.49,32.23 24.98,46.33 10.01,13.36 20.88,26.06 30.85,39.45 25.33,-3.77 51.1899,-4.61 76,-11.4 15.6899,-4.3 30.91,-11.82 42.1,-23.88 4.4,-4.35 7.65,-9.65 11.2001,-14.68 0.46,-0.22 1.3799,-0.67 1.84,-0.89 -3.61,7.57 -7.47,15.14 -9.13,23.45 -4.8,20.46 0.01,41.67 7.16,60.98 6.7699,18.35 15.45,35.91 22.6499,54.08 27.3201,3.06 54.4401,9.8 82.0901,8.49 18.2899,-0.78 36.71,-6.76 50.6499,-18.91 2.26,-1.79 4.0601,-4.38 7.01,-5.1 -3.11,4.88 -7.64,8.7 -10.64,13.69 -11.3799,16.54 -14.61,37.22 -13.72,56.92 0.92,23.16 5.92,45.88 8.5601,68.86 21.86,8.64 42.85,19.55 65.38,26.45 18.25,5.66 38.33,7.68 56.7,1.41 5.8201,-1.66 10.9401,-4.9901 16.59,-7.05 -0.86,2.56 -3.63,3.32 -5.5699,4.81 -15.41,10.06 -26.25,26 -31.91,43.34 -8.87,26.76 -9.39,55.23 -13.5,82.91 17.17,12.7 33.1,27.05 50.89,38.92 15.38,10.35 32.87,18.75 51.6801,19.6 8.7,0.62 17.2899,-1.13 25.7999,-2.7 -1.15,2.29 -3.86,2.29 -5.9299,3.15 -15.78,5.06 -29.4301,15.68 -39.1801,28.98 -13.13,17.75 -20.83,38.68 -28.86,59.04 -2.8,7.47 -6.0699,14.7599 -8.8199,22.24 10.5,14.09 20.73,28.44 31.63,42.25 10.49,13.04 22.1599,25.61 36.7799,34.07 10.48,6.13 22.42,9.79 34.55,10.39 2.16,0.07 4.33,0.31 6.47,0.8 -1.77,1.62 -4.3199,0.93 -6.46,1.22 -18.29,0.85 -35.66,8.97 -49.28,20.99 -20.67,18.05 -35.0699,41.74 -51.9299,63.1 -0.7401,1.13 -2.3501,2.23 -1.41,3.74 8.1699,19.49 14.95,39.58 24.28,58.5699 7.6599,15.4301 17.6499,30.26 31.8899,40.3301 3.77,2.5 7.52,5.27 11.9401,6.5499 -0.5,0.54 -0.98,1.1 -1.4301,1.6801 -16.72,-8.03 -29.6799,-22.1801 -38.72,-38.15 -17.63,-30.96 -25.45,-66.5 -43.9299,-97.0499 -9.5801,-16.12 -22.66,-30.43 -38.9601,-39.9 -8.1599,-4.83 -17.0399,-8.31 -26.1,-11.03 -0.2,8.84 -0.5699,17.69 -1.0599,26.53 15.2,5.4 28.71,15.34 38.3099,28.3099 13.39,17.8201 20.1801,39.34 27.79,60.01 6.1699,16.61 12.88,33.74 25.4199,46.6901 7.78,8.1699 17.99,13.6499 28.8,16.6799 -0.06,1.09 -0.52,1.48 -1.41,1.1801 -11.5499,-2.88 -23.9199,-2.75 -35.21,1.1899 -20.83,7.12 -37.0701,22.64 -53.76,36.34 2.55,9.29 4.53,18.75 5.87,28.3 17.38,-12.75 33.39,-27.33 51.4401,-39.17 12.0499,-7.95 25.1899,-14.6499 39.4299,-17.5599 8.15,-1.74 16.5601,-1.89 24.86,-1.26 -0.13,-0.47 -0.39,-1.42 -0.53,-1.89 4.54,1.86 9.2401,3.27 13.8201,5.03 -2.3,1.5499 -4.88,-0.12 -7.27,-0.3301 -18.5,-3.95 -37.92,0.04 -54.51,8.7101 -24.62,12.71 -44.78,32.0599 -66.89,48.4399 3.6801,25.03 4.5601,50.5601 11.13,75.1 4.6,17.03 12.8301,33.9301 26.8301,45.17 -0.4601,0.52 -0.89,1.05 -1.29,1.6 -12.14,-10.84 -20.79,-25.1899 -25.49,-40.72 -7.4401,-23.66 -8.53,-48.63 -11.78,-73.0599 -2.77,-22 -7.03,-44.3601 -17.8,-64 -8.9299,-16.64 -22.7899,-30.41 -39.0399,-39.92 -2.4401,8.46 -5.05,16.88 -7.8401,25.23 14.2201,9.9 25.13,24.34 30.8201,40.71 9.3199,25.99 8.03,54.02 12.25,80.9701 2.22,14.2799 6.37,28.7899 15.49,40.2799 4.13,5.1801 9.0699,9.77 14.6899,13.3 1.4701,0.9301 3.1201,1.84 3.78,3.61 -3.5699,-0.97 -6.6699,-3.08 -10.12,-4.34 -11.96,-4.87 -25.39,-5.3301 -37.91,-2.52 -17.45,3.84 -33.4099,12.1899 -49.5399,19.58 0.06,9.67 -0.65,19.3201 -1.59,28.9401 21.2999,-8.59 41.86,-19.11 63.85,-25.9 16.1,-4.99 33.4299,-7.49 50.1,-3.9301 4.3,1.01 8.75,1.91 12.61,4.2001 -0.21,-1.02 -0.35,-2.04 -0.3,-3.0601 3.02,2.6001 6.3301,4.8501 9.7101,6.9801 1.15,0.58 1.87,1.59 2.27,2.86 -7.5901,-3.5 -15.0901,-7.4 -23.3601,-9.0701 -19.9399,-4.73 -40.6499,-0.26 -59.5299,6.6 -18.92,6.8101 -36.9601,15.79 -55.64,23.2101 -2.97,26.45 -9.3101,52.65 -8.59,79.4 0.37,19.74 6.6599,39.84 20.1399,54.59 1.3301,1.7899 3.76,3.11 3.6901,5.64 -5.16,-3.62 -9.46,-8.41 -14.97,-11.5601 -17.63,-11.4399 -39.4301,-13.98 -59.9701,-12.46 -21.58,1.38 -42.8099,5.7999 -64.25,8.36 -8,20.21 -17.8899,39.65 -24.8199,60.28 -6.58,19.26 -9.8199,40.62 -3.46,60.39 1.6499,6.2899 5.1499,11.84 7.45,17.87 -2.35,-0.55 -3.02,-3.0701 -4.3099,-4.77 -9.9901,-15.7101 -26.0901,-26.8201 -43.63,-32.55 -26.79,-8.95 -55.3301,-9.4199 -83.04,-13.58 -12.04,16.13 -25.38,31.28 -36.88,47.8199 -9.22,13.35 -17.3101,27.9401 -20.37,44.04 -1.4,6.74 -1.5701,13.66 -1.25,20.52 -0.12,0.3199 -0.37,0.96 -0.49,1.28 -0.25,0.1699 -0.76,0.5 -1.01,0.6599 -1.9301,-19.08 3.85,-38.12 13.47,-54.45 20.23,-34.61 51.91,-61.63 68.1,-98.76 9.7301,-21.62 11.7201,-46.46 5.62,-69.36 -7.73,4.3199 -15.63,8.3199 -23.48,12.4299 3.4401,18.6901 -0.13,38.3401 -9.26,54.9401 -9.85,18.65 -24.51,34.03 -37.72,50.27 -8.64,10.6699 -17.05,21.85 -22.09,34.74 -4.37,10.95 -5.6801,23.1799 -3.1901,34.75 0.29,1.96 1.23,3.99 0.23,5.9299 -2.6299,-5.6599 -4.1399,-11.84 -7.6,-17.12 -8.7999,-15.12 -24.36,-24.59 -40.0499,-31.2899 -9.91,-4.2101 -20.04,-7.87 -30.2001,-11.39 -6.97,6.6599 -14.11,13.1899 -21.64,19.24 18.4701,7.85 37.53,14.28 55.67,22.9 13.8199,6.59 27.24,14.6799 37.71,26.01 5.88,6.24 10.54,13.5399 14.1801,21.2899 0.52,0.3 1.5599,0.88 2.08,1.17 0.7201,4.26 1.63,8.49 2.39,12.76 -2.2999,-0.9501 -2.35,-3.5601 -3.12,-5.53 -5.59,-18.04 -18.5599,-33.0599 -34.26,-43.22 -23.47,-15.3101 -50.66,-23.11 -76.14,-34.25 -15.72,12.35 -32.37,23.47 -47.68,36.34 -12.91,10.92 -25.03,23.49 -32.13,39.0601 -2.89,6.48 -5.3,13.3199 -5.91,20.4399 -0.59,-0.5 -1.18,-0.97 -1.75,-1.42 3.05,-18.3099 13.09,-34.72 26.07,-47.71 25.66,-25.8199 58.8401,-42.72 83.9401,-69.1799 11.6899,-12.15 21.27,-26.5801 26.48,-42.7001 3.4,-10.4199 5.1,-21.37 5.1901,-32.33 -8.54,2.1699 -17.14,4.09 -25.77,5.8099 -1.47,16.36 -7.8201,32.2101 -18.23,44.9501 -13.77,17.22 -32.65,29.13 -50.4401,41.73 -14.14,10.09 -28.67,20.79 -37.82,35.9 -5.89,9.47 -8.64,20.58 -8.94,31.6599 0.3701,0.5601 -1.58,2.24 -1.28,0.8401 -0.59,-7.8 -1.37,-15.7201 -4.41,-23.01 -6.22,-16.16 -19.4,-28.24 -32.9301,-38.42 -16.66,-12.5599 -34.78,-23.28 -49.94,-37.74 -11.02,-10.46 -20.14,-23.27 -24.66,-37.88 -1.9,-5.86 -2.96,-11.9399 -3.64,-18.04 -8.65,-1.6799 -17.23,-3.6699 -25.78,-5.7799 0.09,18.58 5.06,37.1699 14.72,53.09 8.68,14.4399 20.66,26.5699 33.53,37.3199 18.07,15.2001 38.09,27.9 56.06,43.24 10.14,8.75 19.68,18.4501 26.67,29.9501 5.45,8.84 9.08,18.77 10.78,29.01 -0.76,-0.1 -1.98,0.15 -1.9301,-0.9601 -2.73,-17.11 -12.1,-32.45 -23.97,-44.7899 -18.37,-19.05 -41.02,-33.0601 -61.65,-49.4 -19.72,8.6 -40.25,15.26 -59.55,24.8099 -11.68,5.8 -22.96,12.8 -32.17,22.1201 -8.7,8.7599 -15.38,19.59 -18.95,31.4299 -0.61,1.73 -0.85,3.87 -2.85,4.63 0.73,-4.25 1.68,-8.46 2.39,-12.71 0.51,-0.3 1.53,-0.89 2.04,-1.1901 6.94,-15.24 18.8,-27.8199 32.85,-36.75 23.11,-14.86 49.69,-22.6799 74.75,-33.45 -7.4,-6.16 -14.83,-12.35 -21.47,-19.35 -19.23,7.08 -39.46,13.22 -55.77,26.12 -10.74,8.3199 -18.12,20.37 -21.7,33.3999 -0.33,-0.2799 -1,-0.84 -1.33,-1.12 3.47,-12.3099 2.92,-25.6799 -1.6,-37.6399 -7.48,-19.9601 -22.37,-35.7301 -35.73,-51.89 -9.28,2.63 -18.75,4.48 -28.27,5.9399 13.75,18.6 29.51,35.73 41.76,55.42 11.15,17.46 18.45,38.14 16.3,59.09 -0.25,-0.14 -0.74,-0.4299 -0.99,-0.5699 -1.03,-1.8301 -0.29,-3.9501 -0.39,-5.88 0.53,-18.39 -6.54,-36.0601 -16.14,-51.4301 -12.46,-20 -28.45,-37.42 -42.43,-56.3199 -22.98,3.2999 -46.29,4.46 -68.99,9.5699 -16.24,3.6901 -32.33,10.0701 -44.8,21.4 -6.25,5.46 -11.18,12.22 -15.62,19.17 -0.43,0.13 -1.3,0.3999 -1.73,0.5299 3.8,-7.72 7.6,-15.5499 9.25,-24.0599 4.35,-19.4 0.09,-39.47 -6.47,-57.85 -6.87,-19.2101 -16,-37.5 -23.5,-56.4501 -23.41,-2.73 -46.56,-7.7999 -70.17,-8.64 -19.21,-0.6899 -39.31,2.64 -55.44,13.6801 -5.04,3.04 -8.98,7.51 -13.79,10.8199 0.45,-2.99 3.17,-4.6899 4.88,-6.9299 11.94,-13.64 18.01,-31.61 18.97,-49.55 1.58,-28.0599 -5.29,-55.59 -8.4,-83.2999 -21.13,-8.42 -41.47,-18.8301 -63.16,-25.79 -19.87,-6.52 -42.08,-8.85 -61.94,-1.03 -4.84,1.38 -8.88,4.9401 -13.88,5.67 2.97,-3.26 7.16,-4.9501 10.46,-7.8201 13.89,-10.6 23.2,-26.2 28.22,-42.75 7.98,-26 8.64,-53.3999 12.6,-80.12 -16.42,-12.2899 -31.83,-25.9 -48.73,-37.5399 -15.66,-10.79 -33.43,-19.8101 -52.73,-20.9601 -9.02,-0.7999 -17.95,0.87 -26.74,2.67 0.77,-2.11 3.07,-2.25 4.88,-2.92 12.11,-3.8099 23.22,-10.7 32.02,-19.84 13.59,-13.9301 22.03,-31.83 29.4,-49.59 5.62,-13.7201 10.8,-27.6 16.5,-41.29 -15.47,-19.37 -28.72,-40.5899 -46.16,-58.3499 -11.83,-12.12 -26.39,-22.22 -43.07,-26.14 -6.63,-1.75 -13.48,-2.04 -20.27,-2.51 1.52,-1.95 4.19,-1.34 6.34,-1.59 18.93,-0.78 36.81,-9.52 50.66,-22.15 20.74,-18.69 35.31,-42.81 52.53,-64.51 -8.79,-20.32 -15.64,-41.48 -25.65,-61.27 -6.63,-13.08 -14.95,-25.63 -26.32,-35.0699 -7.93,-6.71 -17.3,-11.66 -27.24,-14.65 -1.54,-0.4 -2.98,-1.09 -3.99,-2.36 5.07,0.46 9.99,1.99 15.09,2.33 17.25,1.84 34.55,-3.16 49.58,-11.43 23.28,-12.74 42.65,-31.15 63.89,-46.81 -3.59,-24.77 -4.55,-50 -10.88,-74.3 -4.19,-16.1 -11.65,-31.78 -23.83,-43.37 -4.55,-4.52 -9.88,-8.12 -15.24,-11.59 -0.21,-0.48 -0.65,-1.44 -0.86,-1.92 4.52,1.87 8.73,4.44 13.37,6.08 16.5,6.4 34.91,6.13 51.89,1.8 25.55,-6.34 48.84,-19.03 73.24,-28.55 2.99,-26.33 9.27,-52.42 8.61,-79.06 -0.33,-17.91 -5.28,-36.11 -16.38,-50.4 -2.41,-3.57 -5.97,-6.27 -7.98,-10.11 3.52,1.17 5.66,4.42 8.59,6.51 14.22,11.72 32.7,17.14 50.93,17.66 27.01,0.87 53.49,-5.55 80.18,-8.58 8.25,-20.84 18.52,-40.88 25.48,-62.23 5.82,-17.83 8.72,-37.33 3.64,-55.71 -1.75,-7.26 -5.3101,-13.84 -8.41,-20.56 2.25,0.48 3.1,2.71 4.28,4.41 1.59,2.54 3.34,5 5.44,7.17 -0.53,0.5 -1.05,1.01 -1.57,1.52 l -1.01,-1.51 c 7.49,18.08 6.68,38.51 1.57,57.09 -10.54,38.67 -34.19,72.95 -40.2,113 -3.87,23.57 0.9,48.1901 12.76,68.8701 6.43,-6.04 12.85,-12.09 19.46,-17.93 -7.25,-15.23 -9.65,-32.6301 -6.8199,-49.26 3.74,-22.97 15.02,-43.61 24.48,-64.56 6.04,-13.47 11.69,-27.46 12.89,-42.31 0.78,-10.22 -0.94,-20.64 -5.23,-29.97 -1.14,-2.5 -2.6,-4.88 -3.23,-7.58 2.42,1.24 3.44,3.88 5,5.95 7.91,11.55 20.14,19.66 33.4,23.8 13.53,4.27 27.7599,5.91 41.87,6.79 -0.7,0.56 -1.39,1.13 -2.07,1.7 -17.91,-1.77 -36.45,-3.54 -52.63,-12.06 -7.33,-3.81 -13.83,-9.13 -19.08,-15.49 4.72,13.27 4.78,27.88 1.14,41.42 -4.09,15.98 -11.65,30.74 -18.49,45.67 18.91,0.51 37.98,4.91 54.34,14.65 8.08,4.72 15.47,10.56 22.15,17.11 4.66,-2.75 9.35,-5.46 14.1,-8.08 -5.3,-19.9 -5.09,-41.34 1.5,-60.91 2.28,-7.4 5.79,-14.3 9.04,-21.28 -3.61,-0.46 -7.26,-0.67 -10.89,-0.75 0.67,-0.58 1.36,-1.17 2.05,-1.75 3.3,0.32 6.6,0.76 9.93,0.64 4.91,-8.22 10.08,-16.31 15.79,-24.01 -25.59,-3.73 -51.7401,-4.58 -76.72,-11.7 -16.65,-4.58 -32.28,-13.34 -43.84,-26.3 0.52,-0.43 1.06,-0.86 1.6,-1.28 10.7,13.25 26.56,21.3 42.68,25.98 25.23,7.17 51.62,7.97 77.45,11.79 12.13,-16.34 25.68,-31.61 37.25,-48.38 8.77,-12.78 16.44,-26.69 19.68,-41.98 2.67,-12.25 2.13,-25.12 -1.24,-37.18 l 1.58,-0.38 c 3.99,15.06 12.33,28.95 24.08,39.23 14.03,12.5 31.34,20.44 48.56,27.5 12.79,5.21 25.74,10.01 38.46,15.39 1.18,0.71 2.15,-0.72 3.1,-1.22 15.5,-12.16 31.96,-23.09 46.93,-35.92 12.81,-11 24.6801,-23.79 31.4301,-39.48 2.5493,-5.6399 4.0293,-11.6599 5.3193,-17.6799 m -195.12,25.27 c 0.38,7.85 0.43,15.79 -1.22,23.52 -3.14,16.23 -11.24,30.99 -20.56,44.46 -12.6,18.12 -27.41,34.56 -40.29,52.47 -10.52,14.62 -19.87,30.43 -24.78,47.87 -5.19,17.92 -5.04,37.2 -0.25,55.18 6.74,-3.67 13.49,-7.33 20.38,-10.73 1.01,-0.58 2.17,-1.02 2.96,-1.93 -1.9901,-12.05 -1.71,-24.59 1.67,-36.37 4.35,-15.8 13.44,-29.76 23.42,-42.56 12.45,-15.99 26.88,-30.53 37.41,-47.95 6.98,-11.52 11.64,-24.85 10.96,-38.47 -0.07,-5.23 -1.56,-10.28 -2.12,-15.46 2.2,1.43 2.33,4.17 3.26,6.38 4.42,12.99 13.76,23.9 25.12,31.41 15.35,10.22 33.11,15.79 50.28,22.1 6.7599,-6.85 13.96,-13.25 21.5,-19.24 -25.8,-11.34 -53.44,-19.15 -76.9901,-35.06 -13.2199,-8.82 -24.2099,-21.07 -30.7499,-35.62 m 393.7701,0.04 c -7.39,17.36 -21.7001,30.84 -37.8101,40.17 -21.97,12.92 -46.55,20.27 -69.78,30.48 7.55,5.97 14.75,12.39 21.52,19.24 19.58,-7.3 40.3201,-13.45 56.72,-26.97 9.8401,-7.97 16.76,-19.1 20.28,-31.2 0.41,-0.41 1.23,-1.24 1.64,-1.65 -0.53,4.82 -1.91,9.52 -2.0601,14.38 -0.83,12.24 2.66,24.43 8.4601,35.12 8.22,15.29 20,28.19 31.02,41.46 9.2799,-2.71 18.8099,-4.4 28.33,-6.03 -10.03,-13.16 -20.6901,-25.82 -30.62,-39.05 -11.51,-15.45 -22.14,-32.3 -26.11,-51.41 -1.8799,-8.05 -1.7,-16.34 -1.5899,-24.54 m 141.31,103.62 c -24.04,7.51 -49.38,8.58 -74.1899,11.91 -20.9301,2.69 -42.1101,6.81 -60.9801,16.64 -17.45,9.01 -32.09,23.25 -41.8199,40.28 8.36,2.63 16.79,5.04 25.1,7.88 3.42,-4.73 7.16,-9.25 11.4301,-13.26 11.01,-10.53 25.13,-17.32 39.8099,-21 27.35,-7.05 56.1,-4.9 83.49,-11.69 15.25,-3.69 29.8401,-11.92 38.9701,-24.96 1.75,-2.2 2.73,-5.2 5.4199,-6.5 -1.0399,3.74 -3.28,6.97 -4.5599,10.62 -4.79,11.98 -5.13,25.38 -2.27,37.87 3.89,17.32 12.1699,33.17 19.51,49.2 9.65,-0.09 19.2999,0.59 28.9,1.61 -9.7201,-24.43 -22.3301,-47.89 -28.5,-73.6 -4.37,-17.46 -4.16,-36.27 2.4399,-53.16 -10.7201,13.75 -26.2301,23.08 -42.7501,28.16 M 878.105,326.66 c 6.75,3.47 13.26,7.47 19.21,12.21 12.12,9.47 21.23,22.53 26.41,36.98 8.81,-0.44 17.62,-0.95 26.4399,-1.01 -4.17,-14.85 -11.17,-29 -21.25,-40.73 -8.24,-9.52 -18.05,-17.79 -29,-24.01 -7.6599,4.96 -14.8799,10.63 -21.8099,16.56 m 113.85,6.32 c -10.61,11.94 -17.92,26.54 -22.24,41.86 8.82,0.06 17.64,0.57 26.45,1.01 3.67,-9.99 9.01,-19.43 16.17,-27.34 8.21,-9.19 18.5401,-16.25 29.46,-21.85 -6.95,-5.93 -14.16,-11.62 -21.84,-16.57 -10.5,6 -19.97,13.86 -28,22.89 m -128.39,8.58 c -10.35,12.52 -16.64,28.17 -18.11,44.33 25.27,-4.95 50.86,-8.27 76.56,-9.96 -2.68,-6.91 -6.01,-13.58 -10.34,-19.6 -8.79,-12.47 -21.42,-21.7 -34.94,-28.48 -4.73,4.23 -9.2,8.76 -13.17,13.71 m 151.4,6.56 c -7.58,7.94 -13.19,17.58 -17.09,27.81 25.7,1.7 51.29,5 76.5601,9.96 -0.83,-7.75 -2.45,-15.44 -5.36,-22.68 -5.36,-13.82 -14.9301,-25.61 -25.9401,-35.36 -10.35,5.25 -20.19,11.78 -28.17,20.27 m 280.6601,7.59 c -19.0901,8.42 -40.3101,9.18 -60.78,11.06 3.5,6.93 6.84,13.96 9.1899,21.38 6.6,19.55 6.76,40.96 1.52,60.85 4.71,2.65 9.4,5.34 14.0601,8.1 6.3099,-6.19 13.25,-11.76 20.8199,-16.32 16.64,-10.27 36.22,-14.93 55.64,-15.46 -7.5,-16.61 -16.13,-33.02 -19.65,-51.06 -2.41,-11.97 -1.75,-24.58 2.42,-36.09 -6.2299,7.57 -14.2599,13.59 -23.2199,17.54 m -578.6501,13.7 c 7.47,1.65 14.85,3.79 21.86,6.88 14.02,6.01 26.15,16.14 34.84,28.66 8.39,-2.68 16.77,-5.4 25.25,-7.78 -6.17,-10.5 -13.97,-20.09 -23.32,-27.91 -12.1,-10.29 -26.71,-17.22 -41.86,-21.7 -5.86,7.07 -11.63,14.23 -16.77,21.85 m 488.7401,1.15 c 5.97,9.39 11.0699,19.48 13.77,30.33 2.97,11.4 3.0599,23.43 1.13,35.01 7.95,3.8 15.6799,8.04 23.4299,12.23 2.62,-10.44 4,-21.25 3.49,-32.02 -0.6699,-17.26 -6.2899,-33.99 -14.52,-49.07 -9.1499,0.68 -18.2899,1.77 -27.2999,3.52 M 715.965,370.9 c -3.31,5.22 -6.45,10.57 -8.96,16.22 -6.85,14.88 -9.1,31.79 -6.18,47.93 23.07,-11.36 46.9,-21.17 71.22,-29.54 -3.17,-4.29 -6.56,-8.42 -10.41,-12.09 -12.39,-12.14 -28.88,-19.11 -45.67,-22.52 m 470.7301,4.91 c -15.62,5.59 -29.29,16.15 -38.86,29.69 24.3199,8.38 48.15,18.17 71.22,29.55 1.96,-11.27 1.6901,-22.97 -1.26,-34.05 -2.74,-10.78 -7.85,-20.79 -13.86,-30.09 -5.85,1.25 -11.6401,2.8 -17.24,4.9 M 940.095,402.36 c -77.13,2.62 -153.6801,21.48 -223.11,55.19 -68.66,33.21 -130.33,80.72 -180.05,138.53 -54.22,62.78 -94.17,137.83 -115.79,217.93 -18.28,67.52 -23.65,138.49 -15.93,208 9.64,88.72 41.24,174.8999 91.07,248.9199 43.24,64.4401 100.03,119.7101 165.62,161.1901 71,45.01 152.33,73.6 235.91,82.74 94.83,10.63 192.3701,-3.3401 280.1901,-40.79 74.73,-31.6899 142.2999,-80.02 196.6,-140.35 51.51,-57.04 91.0699,-124.83 115.22,-197.79 31.12,-93.58 36.61,-195.4499 16.14,-291.8899 -17.15,-81.53 -53.14,-158.97 -104.12,-224.84 -47.61,-61.65 -108.1801,-113.24 -176.72,-150.27 C 1138.3351,421.78 1038.775,398.7 940.095,402.36 m -518.47,19.26 c 8.28,11.58 13.41,25.29 14.98,39.43 2.87,24.42 -1.98,48.79 -5.44,72.89 -3.67,24.47 -6.65,49.73 -1.15,74.17 4.19,19.12 14.28,36.68 27.98,50.59 4.5,-7.58 9.29,-14.99 14.1,-22.37 -4.38,-5.32 -8.27,-11.06 -11.27,-17.27 -7.02,-14.15 -9.2,-30.25 -8.36,-45.9 1.12,-26.3 9.51,-51.72 10.17,-78.0601 0.4,-14.72 -2.96,-29.94 -11.82,-41.94 -2.27,-3.36 -5.41,-6.03 -7.46,-9.54 2.49,0.52 4.11,2.55 5.98,4.08 9.34,8.14 21.31,12.97 33.58,14.31 19.67,2.2 39.17,-2.39 58.46,-5.61 2.43,-9.35 5.48,-18.53 9.04,-27.52 -14.84,1.73 -29.54,4.41 -44.36,6.32 -19.92,2.57 -40.63,4.01 -60.15,-1.75 -8.73,-2.4799 -16.77,-6.8099 -24.28,-11.8299 m 1039.2301,14.67 c -24.7001,3.38 -49.4501,-1.5 -73.85,-5.01 -24.3601,-3.67 -49.4801,-6.8 -73.8701,-1.61 -19.6499,4.04 -37.84,14.2 -52.0099,28.35 7.5399,4.55 14.98,9.25 22.34,14.08 9.9299,-8.37 21.75,-14.52 34.4299,-17.41 20.76,-4.83 42.24,-1.57 62.91,2.1 19.51,3.34 39.4,7.82 59.27,4.79 11.17,-1.72 21.9399,-6.44 30.49,-13.9 1.86,-1.53 3.48,-3.54 5.98,-4.06 -1.52,2.75 -3.9,4.85 -5.78,7.33 -6.63,8.22 -10.85,18.27 -12.48,28.69 -3.1799,20.7 1.75,41.4001 5.1901,61.73 9.34,2.33 18.46,5.4901 27.4399,8.96 -2.9099,-26.36 -9.2899,-52.49 -8.4199,-79.16 0.37,-17.55 5.38,-35.17 15.73,-49.49 -11.14,7.66 -23.9401,12.87 -37.37,14.61 M 582.975,426.97 c -3.85,8.34 -7.55,16.77 -10.5601,25.46 7.19,-0.29 14.42,-0.24 21.55,0.77 15.59,2.04 30.48,8.71 42.44,18.9 7.38,-4.82 14.82,-9.54 22.36,-14.09 -6.8,-6.71 -14.44,-12.6 -22.76,-17.31 -16.0599,-9.23 -34.6199,-13.34 -53.0299,-13.73 m -130.27,25.68 c 5.43,8.21 9.25,17.51 10.62,27.29 3,20.44 -1.7,40.9001 -5.15,60.9801 9.77,-2.22 19.76,-3.6801 29.81,-3.54 18.37,-0.07 36.51,5.37 52.41,14.44 3.83,-3.78 7.6,-7.62 11.44,-11.38 -3.85,-7.14 -7.31,-14.52 -9.7,-22.29 -6.31,-19.36 -5.81,-40.34 -1.2,-60.0201 -14.57,2.62 -29.17,5.47 -43.99,6.1 -15.47,0.68 -31.36,-2.71 -44.24,-11.58 m 989.4001,10.24 c -21.11,3.81 -42.37,-1.25 -63.15,-4.75 2.0699,9.51 3.6,19.19 3.5,28.94 0.28,18.72 -5.34,37.13 -14.39,53.39 3.85,3.74 7.59,7.6 11.45,11.35 7.0801,-4.01 14.55,-7.37 22.3301,-9.79 19.3199,-6.24 40.26,-5.77 59.87,-1.12 -3.27,-19.08 -7.65,-38.4001 -5.5601,-57.86 1.0701,-10.86 4.9701,-21.33 11.03,-30.39 -7.61,4.97 -16.08,8.73 -25.08,10.23 M 571.845,454.05 c -2.19,6.87 -4,13.89 -4.92,21.05 -2.11,15.27 0.43,31.03 6.91,44.98 19.34,-16.97 39.77,-32.67 61.14,-47 -4.3101,-3.5 -8.85,-6.71 -13.7401,-9.32 -14.9599,-8.36 -32.4999,-10.58 -49.3899,-9.71 m 713.07,19.03 c 21.37,14.32 41.8,30.05 61.15,47 9.8101,-20.49 9.65,-44.71 1.9,-65.82 -22.3799,-2.07 -45.82,4.03 -63.05,18.82 m 64.98,-18.83 c 3.15,10.3 5.49,20.97 5.4,31.8 0.15,12.15 -2.87,24.19 -7.9299,35.19 6.6,5.84 13.0199,11.88 19.4399,17.92 3.55,-6.44 6.62,-13.15 8.92,-20.14 6.6799,-19.67 6.4099,-41.16 1.4099,-61.18 -9.0298,-1.55 -18.0999,-3.01 -27.2399,-3.59 m 31.4201,98.51 c -0.05,0.18 -0.15,0.54 -0.2,0.72 5.88,6.31 11.8199,12.5699 17.5499,19.02 14.9501,-7.18 32.0701,-9.58 48.4301,-6.94 23.09,3.57 43.86,14.86 64.88,24.4 17.4399,7.83 36.38,15.39 55.88,12.71 8.5599,-0.9 16.4,-4.56 24.0699,-8.23 -0.24,2.04 -2.21,2.8 -3.66,3.84 -10.59,6.76 -18.7999,17 -23.48,28.63 -7.61,18.71 -8.2799,39.17 -10.15,59.02 8.4301,4.71 16.4701,10.09 24.25,15.82 2.3601,-16.53 3.67,-33.19 6.0801,-49.71 2.8199,-19.07 7.27,-38.52 18.0499,-54.8 4.41,-6.86 10.15,-12.7 16.25,-18.05 -17.6599,6.85 -37.34,6.49 -55.4399,1.61 -39.12,-10.31 -73.63,-34.36 -114.01,-40.48 -23.4001,-3.91 -47.97,0.63 -68.5,12.44 M 457.885,542.99 c -1.68,8.9301 -2.92,17.95 -3.61,27.02 6.75,-2.09 13.63,-3.89 20.66,-4.74 15.71,-2.18 31.98,0.39 46.28,7.22 5.57,-6.18 11.2,-12.29 16.95,-18.3 1.63,-0.9 -0.29,-2 -1.09,-2.32 -15.05,-8.0099 -31.95,-13.03 -49.09,-12.73 -10.12,-0.12 -20.44,0.88 -30.1,3.85 m -104.46,38.46 c -17.35,4.34 -36,4.17 -52.83,-2.24 5.01,4.38 9.83,9.02 13.75,14.42 9.71,12.99 14.95,28.7 18.16,44.45 5.08,25.27 5.83,51.18 10.61,76.51 3.39,18.25 9.06,36.43 19.46,51.98 8.74,13.27 20.85,24.13 34.45,32.25 2.46,-8.48 5.09,-16.89 7.86,-25.27 -5.63,-4.06 -10.91,-8.6299 -15.43,-13.89 -9.8,-11.18 -15.92,-25.16 -19.24,-39.55 -6.51,-26.95 -4.43,-55.19 -11.37,-82.0601 -3.83,-15.41 -12.51,-29.99 -25.9,-38.89 -1.72,-1.48 -4.65,-2.11 -4.95,-4.73 2.48,0.97 4.78,2.28 7.2,3.38 11.41,5.25 24.43,6.65 36.75,4.37 18.93,-3.3 36.1,-12.38 53.38,-20.34 -0.13,-9.66 0.63,-19.29 1.57,-28.89 -24.37,9.7601 -47.81,22.3001 -73.47,28.5001 m 100.78,-9.7 c -0.27,6.14 -0.3,12.3 0.28,18.42 1.47,16.33 7.99,32.17 18.63,44.67 14.3,-21.36 30.05,-41.74 46.99,-61.07 -4.9,-2.17 -9.94,-4.04 -15.15,-5.31 -16.77,-4.34 -34.5,-2.08 -50.75,3.29 m 945.6101,2 c 16.91,19.39 32.6801,39.77 47.02,61.13 2.8199,-3.57 5.52,-7.24 7.84,-11.16 9.37,-15.52 12.16,-34.07 11.04,-51.95 -10.5701,-3.39 -21.59,-5.78 -32.75,-5.59 -11.4501,0.02 -22.75,2.89 -33.15,7.57 m 67.6099,-1.38 c 0.23,5.26 0.23,10.54 -0.16,15.79 -1.1799,17.59 -8.0099,34.73 -19.47,48.16 4.8101,7.39 9.59,14.81 14.12,22.39 6.03,-6.3 11.53,-13.14 16,-20.64 10.03,-16.53 14.5801,-35.9 14.9601,-55.12 -8.3301,-3.88 -16.77,-7.56 -25.4501,-10.58 m -1088.54,30.04 c -13.18,3.42 -27.38,3.38 -40.27,-1.29 8.03,7.09 14.54,15.95 18.37,25.9901 7.25,18.41 8.08,38.4399 9.84,57.91 8.22,-4.27 16.74,-8.07 25.7,-10.53 18.33,-5.34 38.03,-5 56.44,-0.23 2.64,-4.74 5.36,-9.42 8.11,-14.09 -5.88,-5.9901 -11.16,-12.57 -15.59,-19.69 -10.71,-16.9 -15.57,-36.92 -16.12,-56.78 -15.15,6.9999 -30.18,14.6799 -46.48,18.7099 m 1115.63,-18.71 c -0.3899,9.88 -1.5399,19.78 -4.1699,29.34 -4.72,17.82 -14.6,34.07 -27.54,47.13 2.76,4.67 5.47,9.37 8.13,14.1 9.79,-2.49 19.89,-3.86 30.01,-3.71 18.29,0.19 36.13,5.87 52.14,14.48 1.8099,-20.23 2.62,-41.14 10.72,-60.07 3.84,-9.2 10.04,-17.25 17.47,-23.85 -11,3.92 -22.98,4.71 -34.4299,2.53 -18.5201,-3.38 -35.3901,-12.14 -52.3302,-19.95 m -1080.6,88.73 c -16.51,1.05 -32.49,6.54 -46.92,14.47 0.89,9.11 1.84,18.22 3.6,27.21 4.99,-3.05 10.04,-6.05 15.39,-8.44 15.38,-7.19 32.96,-9.61 49.68,-6.47 4.1,-7.84 8.16,-15.69 12.38,-23.46 -11.13,-2.74 -22.67,-4.14 -34.13,-3.31 m 1057.9201,3.32 c 4.13,7.7 8.3199,15.38 12.16,23.25 1.8899,0.09 4.0199,-0.93 5.7899,0.16 1.0601,2.25 -3.6799,0.79 -4.89,1.6 11.41,23.04 21.1801,46.87 29.5901,71.15 5.12,-3.85 10.0599,-8 14.2799,-12.84 10.7201,-12.06 16.9701,-27.45 20.16,-43.12 -9.5499,-6.27 -19.95,-11.44 -31.08,-14.16 -8.62,-2.2401 -17.59,-2.56 -26.4301,-2.02 l 0.06,-0.88 0.28,-0.63 c 19.0099,-2.09 38.1599,3.83 54.21,13.84 18.9399,11.52 34.63,27.39 52.25,40.68 14.0499,10.75 30.6,19.93 48.77,19.91 6.1599,0.3 12.12,-1.55 18.21,-2.06 -3.75,3.29 -9.28,3.49 -13.49,6.17 -10.73,5.34 -19.4301,14.15 -25.71,24.27 -9.3301,14.89 -14.66,31.75 -20.7101,48.12 6.9301,6.71 13.2001,14.05 19.38,21.46 7.1901,-16.94 13.23,-34.34 20.79,-51.12 7.58,-16.8 17.14,-33.34 31.54,-45.23 5.37,-4.6 11.61,-7.98 17.7899,-11.34 -5.3199,0.14 -10.65,0.45 -15.9399,-0.18 -16.3101,-1.61 -31.5601,-8.62 -45.2101,-17.38 -20.0699,-12.92 -37.7,-29.13 -56.96,-43.16 -14.3199,-10.5099 -29.74,-19.92 -46.78,-25.2599 C 1511.185,670.89 1490.825,670.84 1471.835,675.75 m -1100.86,40.18 c 1.13,5.46 2.59,10.86 4.48,16.11 5.52,16.0099 16.14,30.07 29.94,39.87 8.44,-24.28 18.17,-48.13 29.61,-71.16 -5.97,-0.95 -12.02,-1.45 -18.07,-1.14 -16.55,0.66 -32.27,7.3 -45.96,16.32 m -97.79,36.96 c -14.74,7.7 -31.51,11.48 -48.13,10.06 7.46,3.93 14.82,8.23 20.97,14.08 13.12,12.02 21.91,27.88 29.07,43.97 10.1,22.69 17.52,46.56 29.07,68.61 7.32,14.04 16.48,27.34 28.4,37.8799 11.99,10.7 26.63,18.2401 42.08,22.52 0.08,-8.82 0.54,-17.62 1.03,-26.42 -12.38,-4.51 -23.8,-11.82 -32.69,-21.58 -12.3,-13.34 -19.86,-30.16 -26.19,-46.95 -7.06,-18.38 -12.55,-37.62 -23.16,-54.39 -7.66,-12.39 -19.29,-22.55 -33.24,-27.13 -1.94,-0.83 -4.45,-0.94 -5.63,-2.95 3.78,0.19 7.41,1.38 11.18,1.73 12.38,1.48 24.99,-1.41 36.03,-7.02 16.29,-8.18 29.8,-20.66 43.75,-32.17 -2.64,-9.29 -4.48,-18.77 -5.95,-28.3 -22.01,16.2501 -42.07,35.4901 -66.59,48.0601 m 1277.2601,-35.95 c -1.49,6.46 -3.2,12.88 -5.71,19.02 -5.89,15.13 -16.39,28.33 -29.73,37.58 2.7599,8.38 5.3899,16.81 7.86,25.28 9.95,-5.96 19.09,-13.33 26.73,-22.09 10.78,-12.31 17.99,-27.35 22.7,-42.9301 -6.98,-5.9999 -14.24,-11.6899 -21.85,-16.8599 M 306.915,764.59 c -12.1,7.03 -26.17,10.73 -40.19,9.61 10.71,4.93 19.82,13 26.43,22.73 10.65,15.36 16.17,33.41 22.74,50.71 5.18,-4.05 9.94,-8.68 15.47,-12.31 17.68,-12.58 39.34,-18.97 60.97,-19.11 1.36,-5.27 2.79,-10.52 4.21,-15.78 -11.06,-6.5 -21.16,-14.75 -29.28,-24.71 -9.85,-11.91 -16.6,-26.1 -21.04,-40.83 -12.65,10.45 -24.94,21.59 -39.31,29.69 m 1266.75,-29.69 c -4.0599,13.43 -9.99,26.42 -18.51,37.62 -8.5399,11.42 -19.6499,20.72 -31.85,28.02 1.62,5.16 2.66,10.49 4.4,15.62 10.59,0.4 21.23,1.59 31.39,4.79 16.9399,5.03 32.0699,14.91 44.87,26.95 5.46,-14.81 10.4,-29.96 18.22,-43.75 7.08,-12.73 17.5601,-23.93 31.02,-29.93 -11.02,0.7 -22.21,-1.06 -32.27,-5.65 -17.8599,-7.94 -32.3599,-21.37 -47.27,-33.67 m -1217.58,89.39 c -14.9,5.36 -28.19,14.5099 -39.57,25.41 3.27,8.54 6.55,17.09 10.54,25.33 4.99,-5.3 10.18,-10.47 16.05,-14.81 12.36,-9.52 27.5,-15.12 43.01,-16.5 1.68,-8.67 3.74,-17.25 5.8,-25.83 -12.18,0.28 -24.39,2.15 -35.83,6.4 m 1171.8901,-6.4 c 2.0599,8.57 4.13,17.15 5.7899,25.81 6.0701,0.68 12.12,1.73 17.9701,3.57 14.08,4.25 26.5299,12.82 36.77,23.25 14.7899,14.97 25.5699,33.17 38.09,49.93 10.9,14.74 24.01,29.28 41.86,35.33 6.75,2.57 14.01,2.81 21.08,3.72 -0.04,0.26 -0.11,0.79 -0.14,1.05 -6.37,0.35 -12.7899,0.85 -18.8899,2.8 -11.8201,3.51 -22.0601,10.98 -30.4801,19.81 -10.59,11.25 -19.3199,24.08 -27.9399,36.84 4.71,8.38 9.13,16.9399 12.9399,25.7799 17.01,-21.46 31.4701,-45.2199 51.91,-63.7399 12.53,-11.45 28.15,-19.64 45.02,-22.25 -10.6,-1.36 -20.78,-5.23 -29.89,-10.75 -12.83,-7.76 -23.42,-18.64 -32.9301,-30.11 -13.74,-16.71 -25.61,-34.86 -39.4099,-51.5099 -11.1901,-13.52 -23.8301,-26.1801 -39.05,-35.14 -15.83,-9.5301 -34.3,-14.1101 -52.7,-14.3901 M 366.565,849.53 c -15.17,5.11 -28.1,15.27 -38.65,27.1 3.17,6.41 6.89,12.57 11.26,18.24 9.25,12.29 22.14,21.64 36.55,27 1.76,-25.65 5.01,-51.19 10.01,-76.41 -6.52,0.66 -12.98,1.95 -19.17,4.07 m 1167.6,-4.08 c 4.9501,25.22 8.29,50.76 9.9601,76.41 6.3899,-2.4901 12.61,-5.5 18.2599,-9.4301 12.9901,-8.86 22.7201,-21.8 29.5901,-35.81 -3.79,-4.12 -7.7101,-8.12 -12,-11.71 -12.78,-11.0399 -28.97,-17.9899 -45.8101,-19.4599 m -1239.46,28.74 c -16.39,20.76 -30.46,43.57 -49.82,61.81 -12.93,12.19 -29.14,21.51 -46.97,23.82 16.66,2.5 32.1,10.56 44.54,21.78 19.39,17.35 33.36,39.54 49.15,59.9799 14.67,19.1899 31.33,37.87 53.16,48.99 14.47,7.49 30.76,11.08 47,11.3101 -2.14,-8.52 -3.87,-17.14 -5.85,-25.6801 -5.35,-1.01 -10.82,-1.5 -16.03,-3.17 -16.3,-4.5199 -30.46,-14.7699 -41.75,-27.1599 -17,-18.42 -28.79,-40.9 -45.42,-59.63 -9.74,-11.06 -22.14,-20.46 -36.74,-23.8 -5.32,-1.45 -10.85,-1.41 -16.28,-2.12 2.38,-1.94 5.57,-1.22 8.39,-1.64 13.2,-1.21 25.62,-7.28 35.46,-16.02 13.84,-12.2 23.81,-27.91 34.4,-42.83 -5.05,-8.21 -8.92,-17.06 -13.24,-25.64 m 1286.33,23.01 c -9.4399,12.02 -22.35,21.25 -36.7799,26.32 0.3899,8.83 0.9399,17.65 0.99,26.5 12.48,-3.51 24.46,-9.01 34.9099,-16.73 12.16,-8.86 21.9,-20.62 29.79,-33.35 -5.29,-7.51 -10.66,-14.99 -16.78,-21.84 -3.49,6.7 -7.4,13.2 -12.13,19.1 m -1301.17,41.86 c -10.21,10.43 -23.27,18.59 -37.9,20.77 17.16,2.79 31.87,13.4 42.99,26.36 8.8,10.09 16.24,21.27 23.94,32.21 6.71,-10.75 14.69,-20.81 24.43,-28.97 11.91,-10.19 26.29,-17.22 41.33,-21.43 -0.17,-5.41 -0.14,-10.81 -0.01,-16.21 -12.43,-3.52 -24.43,-8.86 -34.94,-16.45 -12.55,-8.96 -22.74,-20.89 -30.82,-33.96 -9.1,12.97 -17.89,26.31 -29.02,37.68 m 1308.0001,-9.83 c -12.17,10.78 -27.05,18.2 -42.64,22.58 0.15,5.39 0.1599,10.79 0.01,16.19 13.9099,3.9 27.25,10.17 38.6,19.19 10.73,8.37 19.4299,19.03 26.74,30.45 1.59,0.75 2.3099,-2.6 3.4399,-3.52 10.7001,-15.27 21.3201,-31.21 36.4801,-42.46 8.0499,-6.07 17.5599,-9.95 27.4299,-11.88 -13.48,-1.93 -25.71,-9.06 -35.46,-18.36 -12.36,-11.76 -21.67,-26.1801 -31.46,-40.04 -6.3999,10.28 -13.99,19.88 -23.1399,27.85 M 310.115,1019.98 c 5.13,7.4499 10.37,14.9599 16.66,21.4899 4.2,-7.6901 8.73,-15.28 14.57,-21.85 9.12,-10.65 21.14,-18.63 34.29,-23.39 -0.48,-8.82 -0.91,-17.64 -1.02,-26.46 -27.15,7.1501 -50.75,25.8301 -64.5,50.2101 m 38.85,-5.8 c -8.77,8.13 -15.79,18.1199 -20.92,28.9 14.37,17.09 35.01,29.54 57.57,31.1899 -4.95,-25.1899 -8.22,-50.6999 -9.89,-76.3199 -9.81,3.71 -19.04,9.08 -26.76,16.23 m 1195.2,-16.25 c -1.6699,25.65 -4.96,51.19 -9.9,76.41 7.04,-0.77 14.04,-2.1801 20.6901,-4.66 14.53,-5.23 26.85,-15.15 37.03,-26.58 -2.65,-5.24 -5.6001,-10.34 -9.01,-15.11 -9.4401,-13.72 -23.1901,-24.31 -38.8101,-30.06 m 48.62,46.8699 c -3.71,3.99 -7.5499,7.87 -11.73,11.37 -13.16,11.36 -29.85,18.42 -47.17,19.89 -1.7,8.65 -3.7,17.24 -5.7699,25.8101 13.11,-0.2001 26.26,-2.51 38.45,-7.41 13.79,-5.4301 26.05,-14.15 36.76,-24.29 -3.1701,-8.6001 -6.4401,-17.17 -10.5401,-25.3701 m -1297.52,4.2901 c -4.35,10.27 -8.33,20.6899 -12.42,31.0699 -7.54,18.9601 -15.54,38.2301 -28.71,54.0801 -7.96,9.76 -18.25,17.52 -29.72,22.7 14.86,-1.38 29.96,1.25 43.52,7.47 23.32,10.51 42.48,27.8401 62.47,43.39 17.93,14.13 36.95,27.6901 58.87,34.8101 18.85,6.22 39.39,6.4199 58.57,1.5 -4.2,-7.75 -8.44,-15.49 -12.21,-23.4601 -16.73,2.92 -34.25,0.7001 -49.63,-6.5 -19.98,-9.1599 -36.26,-24.2599 -53,-38.13 -14.39,-11.85 -29.86,-23.83 -48.53,-27.72 -9.82,-2.24 -19.9,-0.9199 -29.64,1 1.07,-2.0399 3.42,-2.2 5.31,-2.95 9.28,-3.09 17.76,-8.52 24.48,-15.62 15.62,-16.7001 22.16,-39.1901 29.98,-60.12 -6.96,-6.7001 -13.21,-14.0701 -19.34,-21.52 m 1308.4301,23.11 c -6.66,5.95 -13.58,11.66 -21.27,16.22 -16.38,10.0701 -35.6,14.9301 -54.75,15.15 -1.37,5.27 -2.74,10.54 -4.22,15.79 9.42,5.6599 18.22,12.47 25.63,20.63 11.77,12.6699 19.62,28.5 24.62,44.96 9.95,-8.46 19.85,-17.03 30.65,-24.41 14.1699,-9.89 31.3199,-16.63 48.87,-14.87 -7.7101,-3.73 -14.8201,-8.76 -20.5,-15.2 -12,-13.4401 -18.51,-30.5701 -24.65,-47.24 -1.6,-3.6 -2.22,-7.7901 -4.38,-11.03 M 315.905,1071.9299 c -6.7,18.16 -12.6,37.0701 -24.14,52.89 -6.44,8.9401 -15.15,16.16 -25.12,20.86 12.84,-1.1899 25.8,1.88 37.16,7.8301 15.67,8.21 28.92,20.13 42.39,31.4299 3.39,-10.99 7.87,-21.7 14.14,-31.37 9,-14.15 21.73,-25.6799 36.1,-34.21 -1.48,-5.25 -2.86,-10.52 -4.23,-15.79 -16.39,-0.26 -32.86,-3.6899 -47.53,-11.16 -10.6,-5.26 -20.06,-12.5199 -28.77,-20.48 m 57.1,68.1501 c -12.14,12.86 -20.58,29 -25.24,46 6.85,6.05 14.17,11.59 21.69,16.8 1.36,-6.14 3.02,-12.2201 5.32,-18.0801 5.83,-15.48 16.42,-29.02 29.98,-38.48 -2.78,-8.36 -5.42,-16.76 -7.83,-25.23 -8.8,5.18 -16.92,11.5401 -23.92,18.9901 m 18.81,19.91 c -11.16,12.15 -17.64,27.89 -20.83,43.9199 9.87,6.3 20.49,11.7201 31.99,14.3 10.38,2.51 21.24,2.5699 31.77,0.91 -11.29,-23.0601 -21.14,-46.8201 -29.44,-71.11 -4.88,3.54 -9.46,7.5001 -13.49,11.9801 m 1093.34,59.12 c 3.91,0.5399 7.8401,1.0499 11.8101,1.14 18.6,0.74 36.59,-6.2301 51.9199,-16.3301 -3.98,-22.0299 -15.61,-43.09 -34.2999,-55.9 -8.3001,24.29 -18.15,48.03 -29.4301,71.0901 m 50.7901,-5.9301 c -15.76,7.85 -33.96,10.54 -51.3199,7.52 -4.51,7.58 -8.15,15.74 -12.5801,23.41 10.09,2.45 20.5,3.84 30.9,3.4099 17.55,-0.5299 34.58,-6.23 49.92,-14.5699 -0.8201,-9.14 -1.8101,-18.26 -3.5701,-27.26 -4.3599,2.6401 -8.7399,5.2801 -13.3499,7.49 m -1207.9601,85.85 c -5.01,15.99 -14.23,30.74 -27.24,41.4401 6.87,-2.28 13.9,-4.22 21.14,-4.78 15.27,-1.4299 30.57,1.72 45.03,6.48 19.21,6.37 37.4,15.37 56.09,23.0601 19.43,8.03 39.81,14.9 61.01,15.53 19.15,0.7 38.24,-4.4801 54.89,-13.8401 -6.08,-6.39 -12.11,-12.85 -17.95,-19.47 -11.56,5.35 -24.31,8.2 -37.07,7.78 -19.95,-0.53 -38.77,-8.16 -56.64,-16.42 -16.74,-7.58 -33.18,-16.4 -51.25,-20.4299 -12.63,-2.88 -26.18,-2.4301 -38.25,2.5 -3.44,1.25 -6.49,3.4399 -10.09,4.25 0.86,-1.88 2.73,-2.8 4.35,-3.87 10.12,-6.54 18.02,-16.3 22.67,-27.38 8.04,-18.9301 8.65,-39.8301 10.59,-60.01 -8.43,-4.7001 -16.45,-10.0901 -24.2,-15.8301 -4.12,27.0099 -4.64,54.79 -13.08,80.9899 m 38.85,-64.2799 c -1.24,14.3099 -2.15,28.71 -5.24,42.7699 -3.29,15.76 -10.73,31.14 -23.48,41.38 10.58,-3.9399 22.16,-4.9299 33.28,-3.0399 19.15,3.12 36.54,12.21 53.99,20.22 0.41,-12.0699 2.14,-24.16 6.07,-35.6 5.13,-15.3301 14.18,-29.17 25.44,-40.7001 -2.81,-4.6699 -5.54,-9.3899 -8.14,-14.1799 -7.07,1.71 -14.25,2.99 -21.51,3.4199 -21.03,1.5701 -42.02,-4.2899 -60.41,-14.2699 m 1162.5301,9.98 c -18.7201,5.85 -38.9701,5.7899 -57.9,0.9399 -3.27,4.39 -5.47,9.54 -8.47,14.14 17.36,17.3301 28.47,40.67 30.74,65.12 -0.51,-0.21 -1.54,-0.65 -2.05,-0.86 -1.76,-23.61 -13.1,-45.98 -29.59,-62.77 -4.49,7.49 -9.2101,14.85 -13.97,22.17 7.3199,9.76 13.71,20.5 16.5599,32.5 6.11,23.74 1.29,48.34 -2.9,71.98 -3.2799,18.75 -6.9,38.22 -2.52,57.12 2.29,9.87 7.1001,19.1801 13.9601,26.67 1.1,1.35 2.76,2.51 2.7,4.48 -1.99,-0.92 -3.47,-2.5701 -5.11,-3.9401 -8.38,-7.3099 -18.86,-12.0699 -29.8,-13.9099 -20.95,-3.42 -41.95,1.58 -62.5499,5.0399 -2.3201,9.38 -5.51,18.51 -8.97,27.52 27.11,-3.1699 54.0499,-9.6799 81.5,-8.38 16.83,0.6801 33.5599,5.8101 47.2999,15.6901 -7.38,-10.4401 -12.4199,-22.5 -14.38,-35.14 -3.8199,-23.6901 0.41,-47.63 3.9,-71.0801 3.17,-22.0199 6.97,-44.4399 4.0601,-66.6799 0.6699,0.55 1.36,1.1 2.08,1.67 0.24,3.0099 0.4,6.0299 0.54,9.0699 17.62,-8.0601 35.1799,-17.29 54.5399,-20.3 10.9401,-1.7999 22.3,-0.74 32.7101,3.0901 -7.6901,-6.3401 -13.8101,-14.51 -17.78,-23.65 -8.26,-19.02 -9.0601,-40.09 -10.88,-60.4501 -7.6301,3.9302 -15.4801,7.5001 -23.7201,9.9602 M 457.705,1261.3199 c -6.45,6.85 -12.34,14.29 -16.96,22.52 -9.22,16.0699 -13.37,34.65 -13.69,53.08 8.35,3.8 16.75,7.5 25.42,10.52 -0.32,-7.1799 -0.24,-14.39 0.79,-21.5 1.94,-15.53 8.64,-30.29 18.65,-42.27 -4.92,-7.3399 -9.48,-14.9 -14.21,-22.35 m -3.5,86.75 c 9.96,3.1 20.27,5.5 30.77,5.52 11.98,0.29 23.92,-2.5 34.8,-7.45 -16.94,-19.27 -32.58,-39.6801 -46.89,-60.9801 -14.76,17.2302 -20.45,40.5802 -18.68,62.9101 m 945.8901,-1.9 c 10.01,4.4701 20.85,7.27 31.85,7.4301 11.49,0.34 22.85,-2.09 33.75,-5.5601 0.52,-11.01 0.06,-22.1899 -2.9399,-32.86 -2.9901,-11.01 -8.52,-21.24 -15.75,-30.02 -14.3101,21.3101 -29.9702,41.7201 -46.9101,61.01 m -19.11,20.75 c 7.3099,4.01 14.98,7.39 22.99,9.75 18.83,5.7001 39.09,5.12 58.0699,0.41 1.48,-9.05 2.9601,-18.12 3.5801,-27.28 -12.78,4.0601 -26.3101,6.47 -39.7301,5.0801 -9.35,-0.8301 -18.4399,-3.5601 -26.96,-7.42 -5.8499,6.6099 -11.8599,13.0699 -17.9499,19.4599 M 516.985,1378.09 c -19.04,5.9 -39.55,5.37 -58.81,0.79 3.24,18.87 7.54,37.98 5.64,57.24 -1.02,11.09 -4.93,21.7999 -11.14,31.0299 7.64,-4.98 16.13,-8.7799 25.17,-10.2699 21.1,-3.7301 42.34,1.26 63.11,4.76 -2.26,-10.02 -3.74,-20.27 -3.52,-30.5601 0.04,-18.0601 5.54,-35.76 14.24,-51.47 -4.03,-3.6 -7.58,-7.6801 -11.55,-11.3301 -7.48,3.7801 -15.05,7.4901 -23.14,9.8102 m 862.67,-9.9001 c -3.71,3.89 -7.49,7.74 -11.4299,11.41 6.39,11.77 11.28,24.47 13.1599,37.77 -0.05,1.4199 -0.6299,2.73 -1.36,3.95 -1.12,-14.23 -6.1899,-27.9399 -13.1,-40.33 -6.37,6.1 -12.87,12.0599 -19.41,17.97 7.1101,15.02 9.42,32.1801 6.6901,48.5699 -3.62,22.6801 -14.64,43.13 -24.04,63.79 -6.6599,14.79 -13.09,30.28 -13.5,46.73 -0.47,11.5801 2.89,23.0701 8.64,33.0701 l -1.41,0.74 c -6.63,-11.61 -16.9099,-21.13 -29.24,-26.38 -19.12,-8.34 -40.3099,-8.9501 -60.76,-10.9 -4.6699,8.4301 -10.0699,16.45 -15.8099,24.2 16.87,2.54 33.91,3.75 50.78,6.29 18.14,2.76 36.5599,7.04 52.2699,16.9301 7.4801,4.58 13.8101,10.74 19.6101,17.26 -3.2001,-8.3501 -5.04,-17.2101 -5.3101,-26.15 -0.51,-16 3.62,-31.72 9.02,-46.65 7.99,-21.8199 18.71,-42.52 26.5599,-64.39 6.9601,-19.29 11.5801,-39.96 9.2101,-60.55 0.4,-0.05 1.1899,-0.1499 1.59,-0.1899 1.65,13.45 0.12,27.13 -2.88,40.3 19.83,-3.3301 39.97,-7.9801 60.16,-5.2301 10.08,1.27 19.6699,5.17 28.13,10.75 -5.64,-8.38 -9.4501,-17.97 -10.77,-27.99 -2.78,-20.24 1.88,-40.4299 5.24,-60.2899 -9.75,2.22 -19.73,3.6599 -29.75,3.5699 -18.34,0.07 -36.3101,-5.45 -52.2901,-14.2501 m -950.73,1.2601 c 1.61,13.95 4.13,27.77 5.97,41.7 2.67,19.8201 4.44,40.3401 -0.62,59.9501 -2.39,9.79 -6.98,18.88 -12.69,27.14 12.38,-8.8301 27.14,-14.02 42.27,-15.3201 24.21,-2.1899 48.24,2.64 72.1,6.04 23.82,3.51 48.39,6.24 72.15,0.87 18.75,-4.14 36.16,-13.83 49.82,-27.27 -0.09,-0.24 -0.28,-0.71 -0.37,-0.95 -7.2,-4.47 -14.39,-8.98 -21.49,-13.62 -12.16,10.21 -27.25,16.85 -43.03,18.7 -25.01,3.16 -49.72,-3.42 -74.28,-7.1799 -18.92,-2.9901 -39.43,-4.42 -57.09,4.3999 -6.72,3.02 -12.03,8.17 -17.8,12.5601 0.13,-2.23 1.9,-3.64 3.23,-5.21 7.84,-8.7001 12.79,-19.8101 14.55,-31.3501 3.1,-20.63 -1.81,-41.24 -5.22,-61.49 -9.37,-2.33 -18.49,-5.5201 -27.5,-8.97 m 114.81,32.68 c -6.28,19.3099 -5.82,40.2799 -0.98,59.85 9.05,1.48 18.13,3.01 27.3,3.5499 -1.69,-5.4099 -3.18,-10.8899 -4.11,-16.47 -3.09,-16.84 -0.93,-34.62 6.44,-50.1 -6.59,-5.83 -12.92,-11.9401 -19.42,-17.86 -3.89,6.6101 -6.92,13.72 -9.23,21.0301 m 22.51,32.9399 c 0.04,10.4401 2.47,20.6801 5.54,30.61 22.29,1.72 45.62,-3.96 62.84,-18.6799 -21.26,-14.3401 -41.71,-29.9301 -60.91,-46.9401 -5.02,10.9301 -7.76,22.96 -7.47,35.01 M 1285.2551,1447 c 3.2999,2.62 6.71,5.14 10.34,7.3099 15.62,9.5601 34.38,12.51 52.4399,11.39 3.3101,-10.22 5.67,-20.87 5.62,-31.66 0.15,-11.71 -2.62,-23.35 -7.47,-33.98 -19.2199,17 -39.65,32.61 -60.9299,46.9401 m -23.81,15.1 c 6.08,5.95 12.8199,11.22 20.1,15.63 16.5801,10.14 36.0701,14.6899 55.38,15.09 3.8201,-8.35 7.5801,-16.76 10.53,-25.46 -22.63,1.6599 -46.23,-4.36 -63.62,-19.37 -7.4201,4.77 -14.8201,9.5799 -22.39,14.11 m -624.9501,18.65 c -16,9.12 -34.42,13.1699 -52.72,13.72 4.97,10.75 10.2,21.41 14.34,32.53 6.62,17.14 9.69,36.74 2.94,54.35 6.85,-7.79 15.32,-14.16 24.97,-18.03 18.68,-7.6799 39.16,-8.52 59.02,-10.27 -3.56,-7.0699 -6.92,-14.25 -9.33,-21.7999 -6.39,-19.3101 -6.6,-40.4 -1.48,-60.03 -4.81,-2.65 -9.54,-5.42 -14.27,-8.2001 -7.04,6.85 -14.9,12.8999 -23.47,17.73 m 609.16,-9.54 c 2.6001,10.4 3.99,21.15 3.5601,31.89 -0.53,17.54 -6.21,34.52 -14.37,49.9299 14.9299,1.28 30,2.1901 44.63,5.66 14.98,3.34 29.2999,10.75 39.27,22.62 -3.9401,-10.95 -4.65,-22.89 -2.5901,-34.3099 3.36,-18.6001 12.17,-35.52 19.98,-52.54 -11.95,-0.47 -23.9299,-2.08 -35.2599,-5.97 -15.4401,-5.0901 -29.3601,-14.16 -40.9601,-25.4701 -4.7299,2.78 -9.4499,5.5601 -14.26,8.1901 m -569.94,0.92 c -2.42,9.7999 -3.74,19.9099 -3.42,30.0199 0.4301,17.8101 6.11,35.16 14.66,50.6901 9.11,-0.87 18.21,-1.84 27.2,-3.59 -7.18,-11.36 -13.09,-23.79 -15.17,-37.17 -1.67,-9.1899 -1.12,-18.55 0.03,-27.76 -7.87,-3.86 -15.58,-8.0401 -23.3,-12.19 m 25.02,13.09 c -1.74,10.5699 -1.58,21.5 0.97,31.9299 2.61,11.4 7.97,21.9401 14.24,31.7301 5.2,-1.12 10.37,-2.4601 15.4,-4.2301 16.2,-5.4299 30.47,-16.0399 40.42,-29.9199 -24.24,-8.4 -48.01,-18.1701 -71.03,-29.51 m 447.3901,29.5 c 3.0399,3.96 6.1799,7.88 9.8099,11.34 12.4,12.29 29.02,19.38 45.95,22.8201 12.6001,-18.41 19.4401,-41.4 15.26,-63.65 -23.01,11.3298 -46.7799,21.1099 -71.0199,29.4899 M 553.035,1492.95 c 8.81,22.14 19.91,43.42 26.6,66.36 5.86,19.41 7.14,40.87 -0.48,60 3.5,-3.83 6.96,-7.72 10.99,-11.01 12.7,-10.76 28.69,-16.73 44.78,-20.27 25.87,-5.6699 52.5,-6.2699 78.51,-11.09 18.78,-3.38 37.52,-9.11 53.47,-19.86 13.05,-8.66 23.72,-20.6 31.8,-33.96 -8.48,-2.52 -16.94,-5.0901 -25.32,-7.9 -9.47,13.5499 -23.04,24.15 -38.55,29.92 -22.56,8.6399 -47.01,8.8899 -70.73,11.4199 -16.53,1.78 -33.65,4.61 -47.8799,13.76 -8.42,5.33 -15.2,12.95 -20.22,21.51 l -1.43,-0.66 c 6.1,-10.5699 9.41,-22.8099 8.6,-35.0399 -0.83,-14.5 -6.12,-28.26 -11.92,-41.41 -3.15,-6.72 -5.95,-13.66 -9.59,-20.12 -9.5601,-0.1 -19.1101,-0.64 -28.6301,-1.65 m 568.1501,30.16 c 6.01,9.9 13.35,19.0399 22.15,26.6 12.27,10.72 27.25,17.9399 42.8099,22.5 5.89,-7.04 11.62,-14.22 16.76,-21.83 -6.0599,-1.37 -12.0699,-3 -17.86,-5.24 -15.49,-5.79 -29.09,-16.3501 -38.5399,-29.92 -8.38,2.8099 -16.8401,5.38 -25.32,7.89 m -345.5901,29.61 c -11.87,9.76 -25.9901,16.5 -40.67,20.88 8.7,10.48 17.78,20.71 25.31,32.1 9.46,13.88 15.61,30.61 13.95,47.61 4.93,-10.9399 13.2,-20.1699 23.12,-26.84 15.38,-10.5 33.3,-16.16 50.62,-22.53 -6.53,-7.1899 -12.67,-14.8099 -17.51,-23.26 -9.36,-15.9399 -13.91,-34.4199 -14.12,-52.84 -5.31,-1.39 -10.62,-2.78 -15.9,-4.28 -6.62,10.9699 -14.8,21.0899 -24.8,29.16 m 328.0101,-24.88 c -0.23,12.38 -2.1801,24.79 -6.4601,36.45 -5.33,14.88 -14.4399,28.13 -25.1899,39.63 15.58,5.75 31.5699,10.89 45.89,19.49 11.9299,7 22.2,17.2101 27.88,29.9501 -1.14,-12.65 1.71,-25.4501 7.52,-36.6901 8.1899,-15.96 20.2799,-29.38 31.75,-43 -10.0601,-3.1699 -19.9401,-7.12 -28.9401,-12.6699 -15.2,-9.02 -27.5599,-22.3201 -36.5699,-37.4401 -5.27,1.5099 -10.5801,2.89 -15.88,4.28 m -258.0701,6.5799 c 0.77,7.1801 2.27,14.3101 4.85,21.0701 5.28,14.2799 15.09,26.4299 26.38,36.46 6.25,-3.27 12.38,-6.83 17.97,-11.14 12.32,-9.21 21.72,-22.0699 27.07,-36.46 -25.6,-1.6901 -51.1,-4.97 -76.27,-9.9301 m 152.55,9.9401 c 2.4,6.09 5.26,12.0399 8.99,17.46 8.81,13.28 21.97,23 36.0401,30.14 3.97,-3.58 7.7699,-7.34 11.25,-11.39 11.2999,-12.8 18.46,-29.14 20.01,-46.16 -25.18,4.98 -50.6901,8.2399 -76.2901,9.95 m -84.5,19.3099 c -8.84,12.87 -21.68,22.4501 -35.49,29.4601 6.92,6.0299 14.3199,11.47 21.8199,16.76 9.48,-5.8301 18.4301,-12.64 26,-20.8301 11.4901,-12.25 19.5601,-27.48 24.11,-43.61 -8.82,-0.1 -17.63,-0.48 -26.43,-1.03 -2.6299,6.74 -5.8399,13.3001 -10.0099,19.25 m 56.29,-18.23 c 3.68,12.9501 9.51,25.36 17.74,36.05 8.7,11.5699 20.07,20.87 32.35,28.4099 7.4901,-5.3099 14.9101,-10.73 21.83,-16.7599 -6.24,-3.2201 -12.28,-6.8701 -17.85,-11.14 -12.65,-9.49 -22.19,-22.79 -27.65,-37.5901 -8.8,0.5602 -17.61,0.9502 -26.42,1.0301 m -18.14,0.06 c -3.55,12.6599 -9.11,24.8099 -16.92,35.4299 -8.82,12.23 -20.64,21.86 -33.15,30.0801 11.8,8.5699 24.1801,16.47 34.84,26.5 11.6,10.49 20.65,24.23 23.43,39.8099 2.12,-10.8099 6.85,-21.0599 13.85,-29.5699 11.56,-14.2301 27.02,-24.4501 41.92,-34.8201 0.78,-0.71 2.05,-1.11 2.18,-2.2899 -7.89,-5.13 -15.56,-10.6901 -22.18,-17.42 -13.34,-13.01 -22.61,-29.83 -27.56,-47.72 -5.47,-0.02 -10.94,-0.01 -16.41,0 z"
   id="path4"
   style="fill:#b2b2b2;fill-opacity:1;stroke:#b2b2b2;stroke-opacity:1" /><path
   fill="#010101"
   stroke="#010101"
   stroke-width="0.0938"
   d="m 958.275,240.78 c 1.25,-3.57 -0.28,-7.94 2.04,-11.08 0.64,4.08 0.76,8.23 1.3,12.33 l -1.06,1.82 c -0.82,-0.99 -1.58,-2.02 -2.28,-3.07 z"
   id="path6"
   style="fill:#b2b2b2;fill-opacity:1;stroke:#b2b2b2;stroke-opacity:1" /><path
   fill="#010101"
   stroke="#010101"
   stroke-width="0.0938"
   d="m 906.785,556.32 c 15.3,-26.16 32.67,-51.26 53.16,-73.65 20.54,22.36 37.79,47.55 53.23,73.64 21.5101,-21.31 44.7701,-41.07 70.36,-57.34 14,26.92 24.27,55.67 32.26,84.9 26.3301,-15.04 53.9601,-28.06 82.9,-37.24 6.49,29.65 9.09,60.08 9.11,90.4 29.36,-7.67 59.41,-13.11 89.77,-14.55 -1.36,30.37 -6.8199,60.46 -14.53,89.83 30.34,-0.03 60.77,2.64 90.4401,9.09 -9.2101,28.94 -22.2001,56.59 -37.27,82.92 29.29,7.95 58.04,18.31 85.02,32.28 -15.9701,24.68 -34.8401,47.42 -55.5,68.3 -0.41,0.7 -2.48,1.66 -1.25,2.48 25.89,15.26 50.7899,32.47 72.97,52.8 -22.4301,20.44 -47.5,37.84 -73.67,53.13 21.27,21.5999 41.0801,44.8399 57.39,70.45 -26.96,13.9399 -55.7,24.2599 -84.95,32.25 15.0399,26.35 28.11,53.97 37.24,82.95 -29.67,6.36 -60.0601,9.0699 -90.38,9.0599 7.64,29.3601 13.15,59.41 14.48,89.76 -30.35,-1.36 -60.41,-6.83 -89.76,-14.51 0.03,30.3101 -2.71,60.7001 -9.02,90.38 -29.01,-9.0599 -56.65,-22.1699 -83,-37.23 -7.9199,29.27 -18.35,57.9601 -32.2,84.9701 -25.6,-16.3101 -48.92,-36.05 -70.4201,-57.4301 -15.37,26.16 -32.75,51.28 -53.22,73.75 -20.46,-22.47 -37.85,-47.59 -53.22,-73.75 -21.51,21.38 -44.8101,41.14 -70.44,57.42 -13.81,-27.02 -24.28,-55.6901 -32.17,-84.9701 -26.33,15.0801 -53.99,28.14 -82.97,37.25 -6.37,-29.6699 -9.08,-60.0699 -9.05,-90.39 -29.35,7.6901 -59.41,13.14 -89.76,14.52 1.32,-30.35 6.82,-60.4099 14.48,-89.77 -30.32,0.01 -60.71,-2.71 -90.39,-9.0499 9.12,-28.98 22.2,-56.61 37.25,-82.96 -29.25,-7.9901 -57.98,-18.3101 -84.95,-32.2401 16.29,-25.6299 36.12,-48.85 57.38,-70.4699 -26.17,-15.28 -51.24,-32.6899 -73.67,-53.12 22.36,-20.5 47.49,-37.8 73.59,-53.18 -21.18,-21.68 -40.97,-44.89 -57.38,-70.43 27.01,-13.89 55.73,-24.32 85.03,-32.25 -15.08,-26.32 -28.01,-53.97 -37.29,-82.87 29.65,-6.55 60.11,-9.15 90.45,-9.14 -7.68,-29.37 -13.17,-59.45 -14.51,-89.82 30.35,1.44 60.4,6.85 89.76,14.54 0.07,-30.33 2.53,-60.81 9.2,-90.43 28.8799,9.29 56.5099,22.21 82.81,37.27 8,-29.23 18.27,-57.97 32.2599,-84.9 C 861.985,515.22 885.205,535.05 906.785,556.32 m 2.34,2.47 c 19,19.25 36.23,40.3 50.85,63.07 14.52,-22.8101 31.81,-43.82 50.79,-63.0601 -14.57,-25.3799 -31.42,-49.51 -50.83,-71.43 -19.37,21.9401 -36.24,46.0501 -50.81,71.4201 m -102.12,26.78 c 23.26,13.73 45.3,29.6 65.36,47.71 8.27,-25.76 19.49,-50.52 32.78,-74.07 -20.73,-20.6 -43.18,-39.54 -67.51,-55.75 -13.14,26.15 -23.1,53.85 -30.63,82.11 m 207.97,-26.41 c 1.33,3.43 3.4399,6.49 5.1,9.77 11.0001,20.59 20.2801,42.11 27.45,64.33 20.05,-18.11 42.1001,-33.97 65.36,-47.69 -7.5299,-28.26 -17.48,-55.97 -30.6299,-82.12 -24.2101,16.25 -46.8,34.95 -67.2801,55.71 m -299.7,78.78 c 26.02,7.26 51.46,16.79 75.48,29.2 1.4,-27.02 5.7,-53.86 12.51,-80.04 -25.33,-14.62 -51.96,-27.1 -79.7,-36.42 -5.86,28.67 -8.39,58 -8.29,87.26 m 401.36,-50.83 c 6.8,26.17 11.1201,53.0099 12.5,80.03 24.02,-12.4 49.4601,-21.94 75.4801,-29.21 0.11,-29.25 -2.4501,-58.5699 -8.27,-87.2599 -27.75,9.3399 -54.39,21.7999 -79.7101,36.4399 m -209.17,-25.44 c -13.24,23.54 -24.43,48.3 -32.48,74.1 19.22,17.75 36.29,37.89 50.21,60.06 7.57,-25.03 18.93,-48.84 32.84,-70.96 -14.42,-22.87 -31.67,-43.9 -50.57,-63.2 m 54.41,63.18 c 13.89,22.07 25.11,45.85 32.85,70.77 14.0699,-22 30.96,-42.18 50.18,-59.86 -8.0599,-25.8 -19.24,-50.56 -32.4901,-74.1 -18.8699,19.32 -36.1299,40.32 -50.5399,63.19 m -155.73,-36.03 c -6.7,26.16 -11.16,52.99 -12.14,80 23.13,12.23 44.82,27.24 64.01,45.05 0.74,-26.16 5.58,-52.14 13.33,-77.11 -19.93,-18.26 -41.96,-34.18 -65.2,-47.94 m 242.4,47.9 c 7.74,24.99 12.61,50.97 13.34,77.15 19.17,-17.81 40.88,-32.8 63.9901,-45.04 -0.9401,-27.02 -5.4401,-53.84 -12.12,-80.01 -23.26,13.74 -45.27,29.66 -65.2101,47.9 m -422.93,-10.91 c 1.85,29.11 6.82,58.05 14.57,86.16 5.83,0.79 11.86,0.32 17.76,0.81 21.08,1.04 42.1,3.65 62.74,8.13 -5.81,-26.44 -8.14,-53.51 -8.82,-80.51 -28.15,-7.73 -57.11,-12.73 -86.25,-14.59 m 582.18,14.6 c -0.16,27.02 -2.9,54.06 -8.6,80.49 26.45,-5.71 53.5,-8.42 80.54,-8.62 7.5499,-28.27 12.76,-57.23 14.5599,-86.46 -29.2398,1.81 -58.2398,6.95 -86.4999,14.59 m -252.06,-5.61 c -11.87,20.3 -21.74,41.89 -28.21,64.53 2.66,5.3 5.88,10.32 8.47,15.68 10.65,20.61 18.33,42.66 23.96,65.14 2.99,-11.89 6.47,-23.66 10.76,-35.15 5.74,-15.89 13.41,-30.99 21.65,-45.69 -7.23,-25.12 -18.49,-49.02 -32.27,-71.2 -1.85,1.94 -2.97,4.42 -4.36,6.69 m -81.79,4.34 c -7.65,25.22 -12.4,51.44 -12.84,77.83 21.04,20.03 38.1801,43.89 52.25,69.24 -0.5699,-29.02 2.59,-58.18 10.46,-86.16 -13.37,-22.69 -30.79,-42.83 -49.87,-60.91 m 122.15,60.98 c 7.85,27.95 11.03,57.07 10.43,86.07 14.11,-25.32 31.2101,-49.19 52.26,-69.21 -0.4199,-26.4 -5.2,-52.62 -12.83,-77.85 -19.0799,18.1 -36.59,38.23 -49.86,60.99 m -280.86,-58.87 c 0.34,27.01 3.02,54.05 8.93,80.43 25.4901,5.85 50.36,14.66 73.47,26.96 -5.89,-25.52 -7.94,-51.84 -7.01,-77.98 -23.99,-12.45 -49.38,-22.12 -75.39,-29.41 m 414.04,29.41 c 0.92,26.14 -1.12,52.46 -7.0199,77.97 23.12,-12.29 47.99,-21.1 73.48,-26.96 5.8999,-26.3701 8.5699,-53.41 8.9199,-80.42 -26.01,7.29 -51.3999,16.95 -75.38,29.41 m -335.52,1.7 c -0.86,26.29 1.48,52.73 7.65,78.3199 25.48,14.09 48.35,32.57 68.5099,53.51 -8.1,-27.92 -12.61,-56.96 -12.12,-86.06 C 838.715,699.98 816.975,684.72 793.755,672.36 m 268.3501,45.75 c 0.5,29.11 -4.05,58.15 -12.11,86.08 20.13,-20.94 43,-39.42 68.48,-53.48 6.2,-25.6 8.5,-52.06 7.6699,-78.36 -23.22,12.37 -44.9599,27.61 -64.0399,45.76 M 916.705,790.03 c -0.06,1.97 0.53,3.88 1.49,5.59 13.84,26.88 23.64,55.64 31.33,84.82 -0.64,-31.32 2.4,-62.66 8.63,-93.33 -6.31,-29.1201 -16.86,-57.4301 -31.88,-83.2 -7.98,27.91 -10.46,57.18 -9.57,86.12 m 76.94,-86.12 c -14.76,25.12 -24.96,52.75 -31.51,81.09 -0.82,2.29 -0.07,4.65 0.38,6.93 6.08,29.07 8.24,58.85 7.89,88.52 7.6,-29.22 17.49,-57.96 31.3,-84.85 2.57,-4.74 1.22,-10.39 1.66,-15.54 0.08,-25.65 -2.71,-51.44 -9.72,-76.15 m -352.57,11.54 c 7.22,26.03 16.93,51.4 29.39,75.38 26.11,-0.9 52.4,1.1 77.89,7.01 -12.15,-23.15 -21.09,-47.94 -26.84,-73.43 -26.37,-5.98 -53.43,-8.59 -80.44,-8.96 m 557.32,8.96 c -5.7799,25.49 -14.7,50.28 -26.86,73.43 25.49,-5.92 51.79,-7.9 77.92,-7.02 12.41,-23.99 22.16,-49.34 29.36,-75.37 -27.0099,0.35 -54.05,2.99 -80.42,8.96 m -647.89,-0.66 c 9.24,27.77 21.79,54.39 36.4,79.72 26.16,-6.79 52.98,-11.13 79.99,-12.48 -12.27,-24.0699 -21.99,-49.42 -29.1,-75.47 -29.26,-0.19 -58.6,2.42 -87.29,8.23 m 731.6101,-8.24 c -7.17,26.03 -16.76,51.43 -29.14,75.43 27.01,1.46 53.85,5.7 80.02,12.53 14.6,-25.34 27.1599,-51.95 36.3899,-79.72 -28.6799,-5.81 -58.0099,-8.41 -87.2699,-8.24 m -275.0601,76.63 c -1.35,2.4 -0.92,5.27 -1.23,7.91 -1.54,28.91 -7.48,57.3701 -14.79,85.3101 14.22,-25.34 30.68,-49.5 49.9501,-71.28 1.73,-2.04 3.97,-3.84 4.62,-6.55 8.49,-27.89 13.62,-56.99 13.22,-86.2 C 1037.925,741.98 1020.775,766.22 1007.055,792.14 m -146.03,-70.87 c -0.31,29.24 4.74,58.37 13.27,86.28 0.39,1.4901 1.2,2.84 2.29,3.96 20.35,22.4 37.41,47.58 52.36,73.83 -7.6,-28.2 -13.39,-57.02 -14.93,-86.25 -0.27,-2.32 0.05,-4.82 -1.15,-6.91 -13.74,-25.96 -30.93,-50.22 -51.84,-70.91 m -136.07,3.89 c 6.02,25.51 14.87,50.49 27.62,73.43 4.68,1.82 9.7,2.66 14.46,4.31 23.0699,7.17 45.1,17.49 65.7,30.07 -15.22,-24.91 -26.95,-51.96 -34.2,-80.25 -23.13,-12.48 -47.99,-21.63 -73.58,-27.56 m 396.3801,27.59 c -7.2001,28.3 -18.99,55.33 -34.1901,80.24 24.8601,-15.29 51.9401,-27 80.24,-34.24 12.51,-23.12 21.5901,-48.01 27.5601,-73.59 -25.6,5.94 -50.49,15.07 -73.61,27.59 m -318.7901,2.31 c 7.56,28.81 20.09,56.25 36.2,81.26 9.15,6.74 18.89,12.84 27.76,20.03 15.81,12.17 30.4,25.81 44.49,39.91 -16.16,-26.77 -29.22,-55.38 -39.11,-85.02 -20.03,-22.11 -43.37,-41.41 -69.34,-56.18 m 256.8001,44.35 c -3.92,4.13 -8.4,7.84 -11.7001,12.49 -9.5399,29.48 -22.7999,57.68 -38.66,84.27 10.73,-10.65 21.6101,-21.2 33.2701,-30.85 12.2,-10.32 25.21,-19.64 38.47,-28.52 4.5399,-6.28 8.1599,-13.2 11.95,-19.95 10.5801,-19.55 19.0601,-40.27 24.6801,-61.78 -21.2601,12.02 -40.6701,27.18 -58.0101,44.34 M 672.215,794.02 c 12.28,23.22 27.58,44.87 45.66,63.95 29.13,-0.43 58.19,4.06 86.14,12.16 -20.96,-20.03 -39.21,-42.94 -53.47,-68.2 -5.98,-2.15 -12.47,-2.89 -18.71,-4.11 -19.68,-3.29 -39.69,-4.57 -59.62,-3.8 m -83.62,12.33 c 13.79,23.23 29.67,45.27 47.95,65.19 24.96,-7.72 50.91,-12.53 77.05,-13.37 -17.75,-19.21 -32.79,-40.85 -44.98,-63.98 -27.02,1.02 -53.85,5.47 -80.02,12.16 m 582.3401,-5.1 c -1.8199,0.12 -2.38,2.05 -3.22,3.33 -13.8,24.35 -31.71,46.21 -51.86,65.57 27.95,-8.14 57.0299,-12.6 86.1699,-12.18 18.0901,-19.1 33.38,-40.78 45.6901,-64.01 -25.76,-0.83 -51.6701,1.39 -76.78,7.29 m 80.32,-7.05 c -12.16,23.15 -27.2301,44.78 -44.9701,63.99 26.13,0.81 52.0801,5.62 77.03,13.35 18.3199,-19.89 34.1801,-41.96 47.98,-65.19 -26.1799,-6.69 -53.02,-11.16 -80.0399,-12.15 M 953.375,897.1 c 2.25,13.43 5.28,26.81 6.21,40.42 0.19,-0.01 0.55,-0.03 0.73,-0.04 0.92,-13.6 3.95,-26.95 6.2,-40.36 1.89,-33.84 0.15,-68.03 -6.55,-101.29 -6.78,33.24 -8.46,67.44 -6.59,101.27 m -36.05,-96.14 c 1.83,29.47 7.59,58.61 15.86,86.92 1.98,6.2 3.4,12.67 6.58,18.42 5.36,10.66 9.94,21.69 14.64,32.66 -2.33,-13.66 -3.21,-27.51 -4.37,-41.3 -7.01,-33.37 -17.68,-66.06 -32.71,-96.7 m 54.9,86.04 c -0.9301,4.35 -2.26,8.64 -2.65,13.08 -0.85,12.99 -2,25.98 -4.05,38.84 5.24,-12.64 10.85,-25.14 16.88,-37.4301 10.7599,-32.5099 17.95,-66.33 20.17,-100.54 C 989.145,828.32 979.195,857.34 972.225,887 m -217.34,-84.2 c 14.11,24.97 32.59,47.3101 53.44,66.94 1.36,1.22 2.67,2.71 4.54,3.1801 29.15,9.35 56.91,22.66 83.22,38.2599 -21.85,-21.47 -41.97,-44.84 -58.56,-70.64 -3.34,-3.84 -8.39,-5.65 -12.54,-8.45 -21.97,-12.73 -45.49,-22.96 -70.1,-29.29 m 328.9301,36.12 c -6.53,8.77 -12.33,18.17 -19.22,26.72 -12.4,16.17 -26.28,31.13 -40.7001,45.5 24.7301,-14.68 50.76,-27.3 78.02,-36.54 2.92,-1.16 6.39,-1.46 8.62,-3.91 21.29,-19.85 40.13,-42.52 54.49,-67.89 -28.8099,7.46 -56.2099,20.06 -81.2099,36.12 M 503.265,837.8 c 16.16,24.38 35.11,46.86 55.79,67.53 23.53,-13.3 48.29,-24.51 74.04,-32.74 -18.11,-20.06 -34.02,-42.07 -47.69,-65.38 -28.28,7.48 -55.95,17.53 -82.14,30.59 m 831.2301,-30.6 c -13.67,23.3 -29.5801,45.33 -47.7001,65.38 25.75,8.25 50.52,19.44 74.04,32.75 20.6799,-20.66 39.62,-43.15 55.7999,-67.52 -26.1898,-13.09 -53.8699,-23.09 -82.1398,-30.61 M 877.765,817.84 c 9.41,28.16 22.7,54.95 38.15,80.27 3.2401,5.05 6.09,10.45 10.23,14.87 7.96,9.0099 15.5,18.4 22.7,28.03 -5.3,-12.66 -10.09,-25.52 -14.57,-38.48 -15.38,-30.31 -33.95,-59.2 -56.51,-84.69 m 113.97,72.94 c -2.71,5.33 -6.02,10.42 -7.74,16.19 -3.82,11.54 -8.35,22.82 -12.95,34.05 8.11,-11.08 17.03,-21.52 25.95,-31.94 18.6,-28.45 34.3,-58.99 45.1301,-91.26 -19.6801,22.15 -36.1401,47.02 -50.3901,72.96 m -148.04,-46.92 c 18.06,27.42 40.32,51.89 64.44,74.09 3.43,3.32 7.57,5.73 11.47,8.44 8.13,5.59 16.1201,11.39 23.84,17.54 l 0.26,-0.3199 c -7.33,-9.19 -14.18,-18.76 -20.73,-28.53 -3.29,-5.24 -7.88,-9.46 -12.01,-13.99 C 890.595,879.77 868.275,860.2 843.695,843.86 m 157.98,65.01 c -3.31,3.47 -5.62,7.7 -8.39,11.57 -5.48,8.16 -11.52,15.91 -17.38,23.78 9.32,-7.1 18.7,-14.12 28.47,-20.6 5.46,-3.37 9.89,-8.07 14.57,-12.39 21.3101,-20.42 41.0101,-42.7 57.2601,-67.37 -27.5301,18.31 -52.2601,40.63 -74.5301,65.01 m -362.72,-34.76 c 17.97,19.22 38.3,36.34 60.81,50.03 27.98,-8.04 57.24,-11.21 86.3,-10.5 -25.41,-14.14 -49.23,-31.37 -69.46,-52.35 -26.33,0.48 -52.46,5.26 -77.65,12.82 m 82.12,-12.86 c 21.21,21.24 45.89,39.09 72.7,52.54 21.64,1.24 43.2,4.04 64.37,8.74 9.08,1.77 17.91,4.65 26.97,6.44 -26.42,-14.65 -51.43,-31.97 -73.88,-52.22 -2.7599,-2.68 -6.85,-2.85 -10.28,-4.13 -25.94,-7.35 -52.87,-11.7 -79.88,-11.37 m 389.19,14.22 c -23.0499,20.69 -48.5599,38.56 -75.59,53.65 3.77,-0.71 7.4301,-1.88 11.15,-2.79 25.5699,-6.6 51.76,-10.98 78.15,-12.3 2.97,0.08 5.39,-1.81 7.9199,-3.08 24.4501,-13.38 47.28,-29.87 66.92,-49.69 -30.0098,-0.21 -60.1198,4.72 -88.5499,14.21 m 92.9901,-14.16 c -20.2001,20.97 -44.02,38.17 -69.4,52.33 29.0499,-0.71 58.2999,2.46 86.27,10.5 22.49,-13.66 42.7599,-30.79 60.7699,-49.94 -25.12,-7.77 -51.3199,-12.4 -77.6399,-12.89 M 561.455,907.66 c 19.29,18.92 40.34,36.14 63.21,50.58 22.0601,-13.95 45.89,-25.14 70.83,-32.8799 -22.09,-14 -42.24,-30.98 -59.97,-50.1801 -25.78,8.1 -50.52,19.27 -74.07,32.48 m 662.94,17.7 c 24.9401,7.74 48.77,18.92 70.8301,32.8799 22.87,-14.43 43.9299,-31.65 63.21,-50.6 -23.58,-13.17 -48.3,-24.43 -74.11,-32.44 -17.6901,19.2201 -37.85,36.1801 -59.9301,50.1601 m -406.83,-47.43 c 21.62,19.23 45.85,35.37 71.12,49.39 6.3,3.26 12.34,7.19 19.21,9.17 11.16,3.7 22.03,8.1801 32.94,12.54 -11.1,-8.06 -21.51,-17 -31.91,-25.91 -28.51,-18.58 -59.06,-34.31 -91.36,-45.19 m 205.72,37.41 c -5.44,3.53 -11.34,6.47 -16.1,10.95 -9.04,7.99 -18.44,15.57 -28.13,22.7599 12.68,-5.28 25.54,-10.09 38.52,-14.5699 30.31,-15.4 59.23,-33.94 84.7,-56.53 -27.6799,9.29 -54.0499,22.27 -78.99,37.39 m -536.15,44.82 c 21.97,19.35 46.06,36.28 71.46,50.8 19.12,-19.02 40.28,-35.92 62.73,-50.82 -22.5,-14.83 -43.59,-31.81 -62.74,-50.78 -25.4,14.52 -49.5,31.44 -71.45,50.8 m 811.2201,0 c 22.6799,14.66 43.73,31.81 62.9299,50.8 25.42,-14.51 49.48,-31.46 71.4701,-50.79 -21.9401,-19.38 -46.05,-36.28 -71.4501,-50.81 -19.2299,18.97 -40.26,36.13 -62.9499,50.8 M 703.635,926.35 c 24.52,14.6 51.61,24.57 79.31,31.2 1.93,0.36 3.92,1.17 5.92,0.6201 29.97,-6.48 60.71,-8.86 91.34,-8.45 -29.37,-7.69 -58.26,-17.65 -85.3,-31.55 -2.71,-1.6801 -5.9901,-1.2 -9,-1.36 -27.69,-0.6801 -55.52,2.2699 -82.27,9.5399 m 97.19,-8.85 c 30.58,15.13 63.31,25.72 96.67,32.75 13.75,1.2 27.59,1.96 41.2,4.43 -12.71,-5.49 -25.4,-11.0699 -37.86,-17.14 -32.35,-10.67 -65.99,-17.75 -100.01,-20.04 m 232.0301,15.72 c -6.15,1.95 -12.5501,3.34 -18.2901,6.39 -10.96,5.45 -22.2,10.3 -33.51,14.97 12.91,-2.01 25.93,-3.23 38.97,-4.04 2.18,-0.17 4.3,-0.68 6.4501,-1.13 31.9,-7.13 63.24,-17.33 92.5499,-31.89 -29.1999,1.9 -58.1,7.5 -86.1699,15.7 m 7.27,16.22 0.06,0.29 c 31.11,-0.57 62.26,2.38 92.72,8.65 29.16,-6.37 57.63,-16.79 83.3401,-32.04 -29,-7.74 -59.3401,-10.97 -89.27,-9.05 -27.61,13.96 -56.8101,24.74 -86.85,32.15 m -409.8001,9.02 c -0.72,0.62 -2.22,0.85 -2.11,2.05 22.12,13.67 45.91,24.88 70.94,32.08 25.14,-14.67 52.42,-25.6 80.73,-32.38 -28.2,-7.12 -55.69,-17.56 -80.66,-32.62 -24.21,7.18 -47.32,17.78 -68.9,30.87 m 509.6501,1.71 c 28.26,6.94 55.7,17.56 80.7,32.54 24.98,-7.4 48.84,-18.44 70.96,-32.18 0.01,-0.17 0.01,-0.52 0.01,-0.7 -22.0699,-13.84 -45.99,-24.77 -70.95,-32.24 -25,15.01 -52.46,25.58 -80.72,32.58 M 816.875,956.52 c -7.23,1.24 -14.73,1.65 -21.68,4.06 1.2,0.04 2.42,0.15 3.64,0.32 27.05,5 54.62,7.01 82.11,6.45 7.34,-0.22 14.78,0 21.99,-1.67 11.34,-2.3199 22.82,-3.91 34.29,-5.49 -13.11,-1.85 -26.19,-3.85 -39.16,-6.48 -27.06,-1.83 -54.31,-0.74 -81.19,2.81 m 165.87,3.7 c 11.43,1.52 22.85,3.15 34.16,5.45 7.54,1.74 15.3401,1.46 23.02,1.69 28.4401,0.54 56.9501,-1.72 84.88,-7.17 -33.83,-6.7 -68.59,-8.68 -102.9901,-6.47 -12.9399,2.65 -26.0199,4.55 -39.0699,6.5 m 56.93,10.3 c 25,6.73 49.74,14.72 73.22,25.73 5.0801,2.13 9.79,5.11 14.9501,7 29.71,1.38 59.6899,-1.49 88.4199,-9.3 -25.8199,-15.2 -54.3199,-25.79 -83.58,-32 -30.54,6.31 -61.8099,9.27 -93.01,8.57 m -478.21,42.12 c 23.53,13.25 48.29,24.4099 74.08,32.47 15.88,-17.11 33.56,-32.6 52.98,-45.58 2.02,-1.69 5,-2.5 6.39,-4.78 -24.7599,-7.69 -48.37,-18.87 -70.3,-32.68 -22.82,14.46 -43.87,31.66 -63.15,50.57 m 142.16,-18.69 c 29,7.77 59.35,10.98 89.29,9.08 27.73,-14.14 57.19,-24.69 87.32,-32.41 -31.29,0.5 -62.62,-2.37 -93.2599,-8.68 -29.1701,6.34 -57.6001,16.81 -83.3501,32.01 m 591.4301,-31.73 c -22.03,13.81 -45.72,25.02 -70.5699,32.71 21.99,14.09 42.1699,30.9799 59.88,50.19 25.7699,-8.11 50.5599,-19.2101 74.0699,-32.5099 -19.1899,-18.79 -40.13,-35.83 -62.74,-50.35 l -0.64,-0.0401 M 911.965,968.9 c -5.28,0.64 -10.66,0.43 -15.89,1.43 -32.9,7.08 -65.13,17.64 -95.37,32.46 29.7,-1.89 59.1,-7.65 87.63,-16.08 5.54,-1.75 11.29,-3.07 16.49,-5.75 10.9,-5.33 21.93,-10.48 33.31,-14.73 -8.75,0.55 -17.42,2.07 -26.17,2.67 m 69.81,-2.69 c 12.74,4.73 24.93,10.78 37.23,16.53 32.39,10.71 66.1001,17.84 100.1801,20.05 -30.8099,-15.06 -63.65,-25.85 -97.21,-32.79 -13.4401,-0.8 -26.8101,-2.51 -40.2001,-3.79 m -79.95,19.85 c -30.09,15.37 -58.83,33.8 -84.15,56.2399 27.52,-9.1599 53.7,-22.0799 78.49,-37.0599 5.86,-3.73 12.11,-6.99 17.19,-11.8 8.85,-7.78 18.05,-15.15 27.48,-22.2 -12.82,5.41 -25.91,10.15 -39.01,14.82 m 77.22,-14.82 c 7.35,5.4901 14.58,11.14 21.56,17.1 4.64,3.73 8.7401,8.16 13.92,11.17 27.5,17.46 56.75,32.5 87.7101,42.7699 -22,-19.4999 -46.65,-35.8899 -72.38,-50.0299 -5.52,-2.86 -10.8201,-6.26 -16.8001,-8.07 -11.53,-3.8 -22.78,-8.37 -34.01,-12.94 m -62.97,25.07 c -6.44,3.94 -11.57,9.58 -17.1,14.65 -20.54,19.8799 -39.51,41.5599 -55.26,65.4499 28.32,-18.84 53.74,-41.89 76.43,-67.1899 7.68,-11.24 15.52,-22.39 23.88,-33.15 -9.17,6.94 -18.34,13.9 -27.95,20.24 m 59.76,-20.29 c 8.35,10.79 16.22,21.96 23.94,33.22 22.68,25.2799 48.0701,48.34 76.4,67.15 -18.12,-27.3701 -40.2999,-51.91 -64.46,-74.05 -3.79,-3.7 -8.45,-6.27 -12.73,-9.3 -7.92,-5.4 -15.52,-11.24 -23.15,-17.02 m -4.81,3.19 c 5.36,12.79 10.13,25.83 14.75,38.91 15.39,30.13 33.81,58.96 56.3401,84.2799 -10.88,-32.2699 -26.5901,-62.8199 -45.2001,-91.2999 -8.91,-10.39 -17.84,-20.8 -25.89,-31.89 m -48.03,31.87 c -18.63,28.4899 -34.37,59.0699 -45.22,91.39 19.25,-21.63 35.39,-45.89 49.41,-71.1801 3.09,-5.98 6.8,-11.7199 8.79,-18.1899 3.78,-11.26 8.12,-22.32 12.7,-33.27 -8.32,10.61 -16.78,21.12 -25.68,31.25 m 14.41,7.96 c -10.7,32.4099 -17.85,66.1199 -20.09,100.21 15.13,-30.62 25.71,-63.38 32.75,-96.75 1.2,-13.75 1.88,-27.6 4.48,-41.18 -5.57,12.62 -11.01,25.35 -17.14,37.72 m 27.96,-37.71 c 1.87,9.49 2.58,19.17 3.5,28.8 0.55,4.97 0.33,10.04 1.46,14.95 7.13,32.4399 17.5,64.29 32.2,94.12 -1.75,-29.2 -7.5,-58.08 -15.64,-86.14 -2.03,-6.4199 -3.5,-13.0799 -6.76,-19.0199 -5.4,-10.6801 -9.84,-21.8201 -14.76,-32.7101 m -5.65,2.14 c -1.38,13.28 -3.97,26.41 -6.32,39.54 -1.93,33.87 -0.18,68.1 6.53,101.3899 1.92,-8.0199 2.94,-16.21 4.09,-24.36 3.16,-25.5299 4.05,-51.35 2.48,-77.0299 -2.34,-13.14 -4.97,-26.27 -6.3,-39.57 -0.12,0.01 -0.36,0.02 -0.48,0.03 m -88.88,11.35 c -25.19,6.33 -50.96,10.29 -76.89,11.65 -9.24,4.19 -17.86,9.74 -26.47,15.11 -16.77,10.8299 -32.4301,23.39 -46.51,37.55 29.17,0.1899 58.23,-4.7201 86.08,-13.25 3.1,-0.7001 5.14,-3.3101 7.47,-5.25 21.64,-19.03 45.56,-35.38 70.71,-49.4 -4.88,0.83 -9.57,2.49 -14.39,3.59 m 163.7501,-3.68 c 14.2,8 28.0599,16.63 41.3199,26.12 12.23,8.5299 23.52,18.3199 34.92,27.87 28.36,9.1599 58.21,14.1699 88.05,13.96 -19.7401,-19.87 -42.63,-36.47 -67.2101,-49.84 -2.4399,-1.22 -4.77,-3.09 -7.62,-2.97 -30.3198,-1.38 -60.2198,-7.29 -89.4598,-15.14 m -347.3701,13.17 c -17.59,12.11 -33.68,26.31 -48.27,41.8699 25.22,7.59 51.42,12.4301 77.8,12.79 20.09,-21.02 43.92,-38.2 69.31,-52.2399 -29.01,0.64 -58.14,-2.59 -86.11,-10.41 -4.54,2.1 -8.52,5.3 -12.73,7.99 m 446.6601,2.42 c 24.7599,13.74 48.0499,30.4199 67.84,50.7499 1.9299,2.61 5.48,1.12 8.21,1.34 24.09,-1.14 47.96,-5.65 71.02,-12.64 -18.0601,-19.11 -38.23,-36.5999 -60.98,-49.8599 -27.96,7.81 -57.09,11.05 -86.09,10.41 m -317.7701,39.6 c -2.1,0.74 -4.44,1.14 -6.1299,2.6899 -21.51,20.05 -40.65,42.88 -55.13,68.54 28.38,-7.4 55.3199,-19.77 80.11,-35.37 2.2,-1.26 3.29,-3.66 4.69,-5.65 16.15,-24.5699 35.55,-46.84 56.46,-67.4599 -25.3001,15.0999 -52.0201,27.9599 -80.0001,37.25 m 207.71,-37.25 c 18.5201,18.3499 35.9401,37.89 50.8801,59.3 3.17,4.1799 5.64,8.8899 9.01,12.9199 25.01,16.15 52.5,28.6901 81.34,36.25 -14.47,-25.64 -33.58,-48.45 -55.08,-68.48 -0.91,-0.87 -2.03,-1.4 -3.1801,-1.76 -29.0599,-9.3599 -56.7899,-22.5799 -82.97,-38.2299 m -520.55,73.41 c 25.7,12.9099 52.91,22.71 80.64,30.25 1.55,1 2.18,-1.03 2.87,-1.92 13.33,-22.46 28.78,-43.6899 46.32,-63.0699 -25.76,-8.28 -50.51,-19.49 -74.07,-32.76 -20.64,20.6798 -39.59,43.1399 -55.76,67.4999 m 783.53,-34.74 c 18.16,20.0199 33.98,42.08 47.7101,65.33 28.2699,-7.48 55.97,-17.46 82.12,-30.62 -16.1801,-24.35 -35.14,-46.77 -55.7401,-67.4899 -23.5599,13.2899 -48.3299,24.4999 -74.09,32.7799 m -446.91,35.1699 c -4.68,5.23 -7.55,11.87 -11.2,17.85 -11.22,20.3401 -20.34,41.9301 -26.08,64.4701 25.97,-14.8301 49.39,-34.11 69.38,-56.3201 3.05,-8.23 5.65,-16.65 9.04,-24.76 8.26,-20.85 18.56,-40.83 29.92,-60.1499 -21.53,22.0599 -45.16,42.1599 -71.06,58.9099 m 169.05,-58.87 c 16.0201,26.77 29.21,55.23 38.97,84.86 19.9701,22.2101 43.39,41.49 69.37,56.3101 -7.1699,-28.1901 -19.59,-54.86 -34.9099,-79.51 -1.04,-2 -2.89,-3.29 -4.75,-4.4301 -25.06,-16.2699 -47.7301,-35.99 -68.6801,-57.23 m -80.08,10.8101 c -14.78,26.65 -32.29,51.85 -52.72,74.49 -1.24,1.26 -1.72,3.01 -2.21,4.6699 -8.31,27.5 -13.18,56.1901 -12.9,84.9701 21.24,-20.91 38.66,-45.5701 52.35,-71.99 1.18,-9.62 1.28,-19.39 2.74,-28.99 2.48,-21.37 7.49,-42.3301 12.74,-63.15 m 62.1,-0.02 c 7.49,28.1899 13.41,56.96 14.9,86.16 0.2401,2.3099 -0.03,4.83 1.09,6.97 13.77,26 30.9201,50.35 51.9201,71.03 0.2999,-28.29 -4.4301,-56.4701 -12.4601,-83.54 -0.6899,-2.15 -1.08,-4.54 -2.71,-6.21 -20.48,-22.5801 -37.84,-47.86 -52.74,-74.41 m -72.64,89.64 c -0.95,1.72 -1.71,3.58 -1.61,5.6 -0.91,29.01 1.58,58.35 9.57,86.3199 14.74,-25.21 25.02,-52.8899 31.53,-81.3199 0.95,-3.38 -0.69,-6.72 -1.11,-10.03 -5.53,-28.0499 -7.59,-56.7 -7.18,-85.26 -7.6,29.1499 -17.44,57.84 -31.2,84.69 m 52.06,-84.7101 c 0.59,31.25 -2.32,62.55 -8.62,93.14 6.13,29.25 16.86,57.64 31.87,83.51 3.08,-10.27 5.04,-20.85 6.68,-31.4299 2.65,-19.11 3.92,-38.5701 2.5,-57.8 -14.14,-27.7701 -24.69,-57.2601 -32.43,-87.4201 m -381.81,74.2101 c 26.12,6.74 52.88,10.88 79.82,12.3199 12.46,-23.0399 27.22,-44.96 45.2,-64.0699 -26.12,-1.03 -52.06,-5.6801 -77.01,-13.4501 -18.37,19.8601 -34.15,42 -48.01,65.2001 m 617.72,-51.76 c 17.98,19.12 32.76,41.02 45.2001,64.08 26.9399,-1.4399 53.71,-5.58 79.83,-12.3199 -13.85,-23.2101 -29.63,-45.36 -48.03,-65.2101 -24.94,7.81 -50.8901,12.4199 -77.0001,13.45 m -488.15,0.1899 c -4.43,3.8401 -8.01,8.62 -11.9,13.01 -13.14,15.6801 -24.45,32.87 -34.09,50.9 26.29,0.88 52.74,-1.42 78.32,-7.65 14.11,-25.46 32.58,-48.34 53.53,-68.5 -27.85,8.1601 -56.83,12.48 -85.86,12.24 m 397.7201,-12.26 c 20.98,20.13 39.45,43.03 53.5499,68.52 25.5801,6.2201 52.04,8.54 78.3401,7.65 -12.51,-23.12 -27.4501,-45.21 -45.9701,-63.91 -29.0499,0.24 -58.0599,-4.0799 -85.9199,-12.26 m -363.3101,71.38 c -12.52,23.12 -21.65,48.01 -27.59,73.6101 25.61,-5.92 50.5,-15.05 73.62,-27.5901 7.15,-28.27 18.98,-55.23 34.09,-80.14 -24.86,15.1901 -51.86,26.9401 -80.12,34.12 m 334.6701,-34.12 c 15.13,24.9 26.95,51.86 34.1,80.14 23.12,12.53 48.02,21.66 73.62,27.6 -5.9399,-25.6 -15.0599,-50.5 -27.59,-73.62 -28.26,-7.1799 -55.26,-18.9399 -80.13,-34.12 M 801.435,1169.6 c -6.23,25.59 -8.53,52.0499 -7.67,78.35 22.45,-11.92 43.46,-26.59 62.09,-43.9 0.72,-0.9099 2.14,-1.61 1.9301,-2.96 -0.36,-28.77 4.11,-57.48 12.19,-85.0601 -20.1501,20.9801 -43.0201,39.5 -68.5401,53.5701 m 248.49,-53.5601 c 8.17,27.92 12.65,57 12.17,86.12 19.0599,18.17 40.8099,33.42 64.0399,45.78 0.8501,-26.2999 -1.4399,-52.77 -7.6799,-78.35 -25.53,-14.04 -48.3699,-32.5899 -68.53,-53.55 m -463.03,0.8001 c -14.62,25.33 -27.11,51.96 -36.42,79.71 28.67,5.86 57.99,8.3401 87.24,8.3201 7.26,-26.05 16.83,-51.49 29.21,-75.55 -27.02,-1.3301 -53.85,-5.7101 -80.03,-12.4801 m 666.0701,12.49 c 12.39,24.05 21.9399,49.5 29.22,75.54 29.24,0.02 58.5601,-2.4701 87.23,-8.3201 -9.3099,-27.74 -21.7899,-54.37 -36.4,-79.7 -26.19,6.7601 -53.02,11.1301 -80.05,12.4801 m -582.6001,0.1999 c -12.34,24 -22.04,49.3201 -29.32,75.3101 27,-0.3 54.05,-2.98 80.41,-8.92 5.85,-25.47 14.73,-50.25 26.85,-73.4099 -25.51,5.8898 -51.8,7.8199 -77.94,7.0198 m 501.1301,-7.0399 c 12.26,23.1 21.0699,47.95 26.9299,73.4099 26.36,5.9701 53.41,8.65 80.42,8.92 -7.3101,-25.99 -16.9401,-51.38 -29.41,-75.35 -26.1299,0.95 -52.4299,-1.1399 -77.9399,-6.9799 m -310.3801,80.88 c 0.4,26.37 5.2,52.5699 12.81,77.7799 19.19,-18.0099 36.35,-38.2899 50,-60.8199 -8.09,-27.97 -11.09,-57.21 -10.56,-86.26 -14.06,25.38 -31.23,49.2299 -52.25,69.3 m 145.38,-69.3201 c 0.63,29.0601 -2.46,58.3101 -10.53,86.28 13.66,22.52 30.82,42.8101 50.0001,60.8199 7.61,-25.21 12.41,-51.3999 12.8099,-77.7699 -21,-20.1199 -38.19,-43.95 -52.28,-69.33 m -46.55,6.0901 c -6.94,28.2799 -17.57,55.73 -32.55,80.74 7.39,24.9099 18.35,48.72 32.06,70.7699 0.21,0.08 0.62,0.2301 0.82,0.3 13.74,-22.16 24.82,-46.04 32.22,-71.0599 -14.97,-25.02 -25.61,-52.4701 -32.55,-80.75 m -235.73,58.4299 c -5.99,26.38 -8.62,53.45 -8.97,80.47 26.02,-7.25 51.4,-16.9399 75.39,-29.38 -0.97,-26.12 1.15,-52.39 6.95,-77.89 -23.15,12.0901 -47.88,21.1101 -73.37,26.8 m 398.0901,-26.8099 c 5.79,25.5 7.9401,51.7599 6.9401,77.87 23.99,12.47 49.38,22.1499 75.4099,29.4099 -0.36,-27.02 -2.99,-54.09 -8.98,-80.46 -25.48,-5.7199 -50.23,-14.6999 -73.37,-26.8199 m -482.1401,36.2999 c -7.59,28.25 -12.74,57.22 -14.5699,86.4301 29.23,-1.77 58.18,-7.02 86.46,-14.51 0.24,-27.0601 2.92,-54.12 8.64,-80.5801 -26.4401,5.7401 -53.4901,8.38 -80.5301,8.66 m 559.0301,-8.66 c 5.84,26.41 8.15,53.4801 8.83,80.4701 28.13,7.83 57.11,12.73 86.26,14.63 -1.7899,-29.2001 -6.97,-58.14 -14.5299,-86.38 -27.0501,-0.41 -54.1102,-2.9401 -80.5601,-8.7201 M 794.025,1251.47 c 0.9,27.03 5.47,53.87 12.11,80.0599 23.22,-13.84 45.33,-29.6799 65.22,-48.0299 -7.79,-24.91 -12.56,-50.8301 -13.36,-76.9301 -19.29,17.6301 -40.83,32.75 -63.97,44.9001 m 267.88,-44.9501 c -0.7999,26.1201 -5.58,52.0601 -13.36,76.9701 19.89,18.35 41.99,34.23 65.25,48.0399 6.5601,-26.21 11.1901,-53.0199 12.0801,-80.0599 -23.13,-12.1801 -44.7301,-27.26 -63.9701,-44.9501 m -186.9,78.05 c 8.03,25.8 19.26,50.54 32.46,74.09 18.9,-19.25 35.97,-40.33 50.55,-63.0299 -13.74,-22.25 -25.2,-45.9801 -32.84,-71.02 -14.01,22.0799 -30.99,42.2099 -50.17,59.9599 m 119.71,-59.9499 c -7.67,24.97 -18.96,48.75 -32.84,70.85 14.44,22.86 31.67,43.89 50.57,63.1899 13.1701,-23.5699 24.44,-48.2899 32.44,-74.11 -19.1999,-17.7199 -36.15,-37.88 -50.17,-59.9299 m -279.47,57.7799 c -0.04,29.2401 2.47,58.54 8.29,87.2101 27.7599,-9.27 54.39,-21.78 79.73,-36.41 -6.81,-26.17 -11.1,-53 -12.53,-80.01 -24.04,12.39 -49.47,21.93 -75.49,29.2099 m 413.8701,-29.1899 c -1.27,27 -5.8401,53.74 -12.36,79.9399 25.1699,14.8401 51.9099,27.1001 79.6,36.4801 5.8199,-28.67 8.34,-57.99 8.2899,-87.2301 -26.0399,-7.2699 -51.4499,-16.88 -75.5299,-29.1899 m -322.1001,81.4799 c 7.47,28.29 17.51,55.97 30.59,82.16 24.35,-16.2001 46.8701,-35.1 67.5,-55.8101 -13.31,-23.5299 -24.46,-48.2999 -32.7599,-74.0399 -20.0101,18.15 -42.0501,34.02 -65.3301,47.69 M 1047.5551,1287 c -8.3199,25.73 -19.45,50.51 -32.7601,74.0399 20.6301,20.7101 43.1501,39.5901 67.48,55.8101 10.65,-21.1 19.05,-43.3 26.02,-65.87 1.38,-5.4601 3.78,-10.85 4.27,-16.42 -23.1099,-13.73 -45.1099,-29.45 -65.0099,-47.56 m -136.3101,72.36 c -0.73,1.02 -2.94,2.1799 -1.35,3.58 14.47,24.8101 31.02,48.48 50.05,70.03 19.29,-21.87 36.1,-45.88 50.66,-71.13 -3.16,-4.2 -7.24,-7.6901 -10.65,-11.7 -14.75,-16.03 -28.15,-33.3 -40.01,-51.5701 -14.14,21.84 -30.55,42.1701 -48.7,60.7901 z"
   id="path8"
   style="fill:#b2b2b2;fill-opacity:1;stroke:#b2b2b2;stroke-opacity:1" /><path
   fill="#010101"
   stroke="#010101"
   stroke-width="0.0938"
   d="m 957.545,1721.88 c 1.3,-0.2101 2.61,-0.42 3.9301,-0.63 -0.27,4.73 -0.53,9.48 -1.15,14.2 -2.8101,-3.9101 -0.0701,-9.5201 -2.7801,-13.57 z"
   id="path10"
   style="fill:#b2b2b2;fill-opacity:1;stroke:#b2b2b2;stroke-opacity:1" />
</svg>
